<?xml version="1.0" encoding="utf-8"?>
<!-- Generator: Adobe Illustrator 18.0.0, SVG Export Plug-In . SVG Version: 6.00 Build 0)  -->
<!DOCTYPE svg PUBLIC "-//W3C//DTD SVG 1.1//EN" "http://www.w3.org/Graphics/SVG/1.1/DTD/svg11.dtd">
<svg version="1.1" id="Layer_1" xmlns="http://www.w3.org/2000/svg" xmlns:xlink="http://www.w3.org/1999/xlink" x="0px" y="0px"
	 viewBox="0 24 287 124" enable-background="new 0 24 287 124" xml:space="preserve">
<text transform="matrix(0.9768 0 0 1 158.0957 99.5791)" fill="#F01344" font-family="'MyriadPro-Regular'" font-size="49.4818">Socos</text>
<ellipse fill="#F57E1D" cx="71.4" cy="40.5" rx="9.4" ry="9.2"/>
<ellipse fill="#7A767E" cx="113.7" cy="55.4" rx="9.4" ry="9.2"/>
<ellipse fill="#F8BC24" cx="82.5" cy="80.5" rx="13.3" ry="13.1"/>
<ellipse fill="#48CD52" cx="142.1" cy="92.7" rx="9.4" ry="9.2"/>
<ellipse fill="#F01344" cx="103.3" cy="111.6" rx="8.7" ry="8.5"/>
<ellipse fill="#9A66AF" cx="66.5" cy="130.9" rx="10" ry="9.9"/>
<ellipse fill="#4BB6F3" cx="28.1" cy="96.1" rx="9.8" ry="9.9"/>
<polygon fill="#7A767E" points="73.5,49.5 74.2,49.2 79.7,67.9 79,68.1 "/>
<polygon fill="#7A767E" points="37.7,94.1 37.5,93.4 69.8,84.2 70,84.9 "/>
<polygon fill="#7A767E" points="77.9,92.7 78.4,92.9 70,121.7 69.4,121.4 "/>
<polygon fill="#7A767E" points="89.9,91.3 90.4,90.9 99.3,104.2 98.7,104.4 "/>
<polygon fill="#7A767E" points="95.6,83.5 95.8,82.8 133.2,89.9 133.2,90.6 "/>
<polygon fill="#7A767E" points="93.4,72.7 92.8,72 106.3,61.2 106.8,61.9 "/>
</svg>
