<?xml version="1.0" encoding="utf-8"?>
<!-- Generator: Adobe Illustrator 18.1.0, SVG Export Plug-In . SVG Version: 6.00 Build 0)  -->
<svg version="1.1" id="Layer_1" xmlns="http://www.w3.org/2000/svg" xmlns:xlink="http://www.w3.org/1999/xlink" x="0px" y="0px"
	 viewBox="0 324.2 612 124.8" enable-background="new 0 324.2 612 124.8" xml:space="preserve">
<g>
	<g>
		<path fill="#FCFBFB" d="M0.3,541.5c0-72.5,0-145,0-217.4c204,0,408,0,612,0c0,72.5,0,145,0,217.4
			C408.3,541.5,204.4,541.5,0.3,541.5z M377,385.8c-2.7,1.4-5.4,0.5-7.9,1.1c-2.8,0.7-5.8,0.6-8.8,0.8c-2.8,0.2-5.5,0.9-8.1,1.2
			c-2.8,0.4-5.5,0.6-8.2,1.4c-2.1,0.7-4.6,0.3-6.6,1.6c-0.3,0.2-0.6-0.1-0.9-0.5c-1.4-1.9-2.1-4.1-2.2-6.5c-0.1-4.2,0-8.4,0-12.5
			c0-1.6-0.1-3.4-1.7-4.5c-2.7-1.8-5.5-3.4-8.3-5.1c-1.8-1.1-3.4-2.3-5.3-3.3c-3-1.9-5.7-4.1-8.6-6.2c-1.6-1.1-3.3-2.3-4.7-3.6
			c-1.8-1.6-3.6-3.3-5.4-4.9c-2.6-2.3-4.9-4.9-7.3-7.5c-1.1-1.1-1.6-0.9-2.4-0.2c-0.4,0.4-0.8,0.5-1.1,0.7c-2.6,1.7-5.2,3.4-7.6,5.4
			c-2.8,2.2-5.4,4.6-7.9,6.9c-2.1,1.8-4.1,3.7-6.2,5.5c-2.7,2.4-5.3,4.9-7.9,7.3c-1.4,1.3-3.1,2.6-4.5,3.9c-2.5,2.2-3.9,5.2-6,7.7
			c-1.8,2.1-4,3.9-7,3.6c-2-0.2-3.8-1.3-5.5-2.7c-3-2.4-5.1-5.5-7.3-8.5c-2.1-2.9-3.9-6-5.9-9c-1.6-2.3-3.1-4.6-5.1-6.6
			c-1.2-1.2-2.7-2.3-4.1-3.3c-0.6-0.5-1.7,0-1.6,0.9c0.2,1.8-0.6,3.5,1.2,5.5c3.3,3.3,6.2,7.1,9.3,10.7c3.2,3.8,6.2,7.6,9.6,11.3
			c1.6,1.8,2.9,3.9,4.7,5.5c0.9,0.8,2,1.6,1.9,3.2c0,1.2,0.2,2.5,0.3,3.6c0.1,4.5,0.5,9.1,0.7,13.6c0.2,3.6,0.5,7.3,0.6,10.9
			c0.2,4.9,0.6,9.7,0.8,14.5c0.1,2.1,0.3,4.2,0.4,6.5c1.7-0.6,3.3-0.7,5-1c4-0.6,8-1.2,12.1-1.8c1.3-0.2,2.7-0.1,4-0.3
			c4.5-0.7,8.9-0.3,13.4,0.1c0.8,0.1,1.8,0.5,2.6,0.7c2,0.4,4,1.7,6.2,0.7c1.1-0.6,2.4-0.7,3.6-1c2.3-0.6,4.8-0.7,7.2-0.8
			c3.2-0.1,6.4,0.1,9.6,0.3c3,0.2,5.7,0.9,8.7,1.1c1.1,0.1,2.4,0,3.5,0.2c3.4,0.6,6.9,0.8,10.3,1.1c3.7,0.4,7.6,0.3,11.2-0.6
			c0.4-0.1,0.9,0.2,1.2-0.2c-0.5-1-0.9-1.8-1.2-2.7c-2.1-5-2.6-10.1-2.6-15.4c0-5.4,0.1-10.6-1-15.9c-0.2-0.9-1-2,0.3-2.8
			c0.9-0.5,2-0.7,2.9-1.2c2.7-1.5,5.5-2.5,8.4-3.5c2.4-0.9,5-1.1,7.4-1.7c1.1-0.3,2-0.1,3.1-0.3c2.8-0.5,5.5-0.8,8.3-0.6
			c3.4,0.3,7,0.2,10.4,0.9c1.1,0.2,1.4,0.7,1.4,1.6c0,1.4,0.3,2.8,0.4,4.2c0.3,4.8,0.7,9.6,0.4,14.4c-0.3,5.2-0.6,10.4-1.1,15.6
			c-0.2,2.4-0.7,4.8-0.9,7.1c-0.2,2.5-1.2,5.3,1.2,7.4c0.5-0.6,1.1-1.1,1.9-1.1c0-2-0.2-4.1-0.3-6.1c-0.2-7.8,0-15.7,0.6-23.5
			c0.4-4.9,0.7-9.8,1-14.8c0.3-4.7,0.8-9.3,1-14c0.2-3.9,0.7-7.7,0.4-11.7c0-0.5,0-0.9,0-1.3c0.7-4.2,0.1-8.4,0.3-12.5
			c-1.8,0-3.5,0-5.3,0C377.7,365.3,377.3,375.6,377,385.8z M455.7,427.4c1.9-1.1,3.3-2.7,4.5-4.3c3.3-4.1,6.5-8.4,9.3-13
			c4.5-7.5,8.2-15.3,12-23c2.7-5.4,5.5-10.6,8.2-15.9c0.4-0.7,0.6-1.9,1.7-2.2c0.1,5.9-0.4,11.7-1,17.5c-0.3,3.2-0.4,6.4-0.7,9.7
			c-0.6,4.7-0.9,9.4-1.3,14.1c-0.2,2.1,0,4.2-0.4,6.3c-0.7,3.9,0.3,7.8-0.8,11.9c2.3,0,4.5-0.2,6.4,1.7c-0.4-7.5,0.2-14.4-0.4-21.3
			c-0.4-5.4,0.1-10.7,0.7-16c0.3-3.1,1.1-6.1,2.2-9.3c1.7,3.5,4.7,5.4,7.8,7c3,1.5,6.2,2.1,9.5,2.9c3,0.8,6,0.8,9,1.6
			c2.4,0.7,4.7,1.4,6.7,2.7c3.6,2.4,6.1,5.7,7.7,9.8c0.2,0.6,0.1,0.7-0.3,1.1c-1.5,1.5-3,3.1-4.6,4.6c-2.1,1.9-3.9,4-6,5.9
			c-2.4,2.2-4.8,4.4-7.1,6.6c-3,3-6,6-9.2,8.8c-2,1.8-2.8,3.6-2.7,6.2c0,0.9,0.3,1.4,1.1,1.7c2.1-3.6,4.7-6.8,7.6-9.8
			c3.3-3.3,7.1-5.9,10.7-8.9c3.1-2.5,6.2-4.8,9.1-7.5c3.5-3.3,6.2-7.2,8.5-11.4c1.1-2,1.1-3.8,0-5.9c-1.7-3.5-5.1-5-8.3-6.5
			c-1.3-0.7-2.9-1.3-3.8-2.2c-2.2-2.2-5-3-7.6-3.7c-3.8-1-7.8-0.7-11.8-1.2c-3.8-0.7-7.2-2-10.1-4.5c-1-0.8-1.5-1.9-1.1-3.3
			c0.3-0.9,0.7-1.7,1-2.7c1.3-4.2,3.6-7.7,6.4-11.1c3.1-3.7,6.9-6.4,10.9-8.8c2.2-1.3,4.6-2.5,7.4-3.4c-3.5-0.2-6.4,0.8-9.2,2.2
			c-3.6,1.9-6.7,4.3-9.6,7.3c-2.7,2.8-5.2,5.5-7.3,8.8c-2.1,3.2-3.9,6.6-5.5,10.1c-0.3-1.9-0.8-3.7-0.8-5.5c0-3.7-0.1-7.5,0.2-11.2
			c0.5-4.9,1.3-9.7,2.2-14.4c0.1-0.8,0-1-0.6-1.1c-1.1-0.4-2.2-0.5-3.2-1.5c0,3.8,0,7.4,0,10.9c0,0.5,0,1-0.2,1.5
			c-1.4,2.9-3.1,5.7-4.5,8.5c-2.8,5.5-5.3,11-7.8,16.5c-3,6.4-5.8,12.8-9.1,19c-2.1,3.9-4.3,7.7-6.9,11.4c-2.2,3.3-4.4,6.5-7.5,9.2
			c-0.6-0.2-0.3-0.9-0.6-1.3c-2.5-3.1-3.8-6.8-4.9-10.4c-1.8-5.9-2.3-12-2.2-18.2c0-3.2,0.2-6.3,0.5-9.5c0.4-3.5,0.8-7.2,1.1-10.7
			c0.4-3.8,1.2-7.6,1.8-11.4c0.1-0.5,0.4-1.2-0.5-1.4c-2.2-0.5-4-1.9-6.2-2.2c-0.8,5.5,1.8,11.3-1.6,16.4c-0.5-0.9-1.5-1.1-2.1-1.9
			c-2.7-3.8-6.4-6.3-10.3-8.5c-1.5-0.9-3.1-1.2-4.6-2c-2-1.1-4.1-1.5-6.2-1.7c-3-0.4-5.6,0.4-8.1,2.1c-2.1,1.4-2.2,1.2-0.7,3.3
			c3.3-2.5,6-3.1,9.4-2.9c1.4,0.1,2.9,0.3,4.3,0.8c1.6,0.5,3.3,0.8,4.7,1.8c4.1,3.1,8,6.1,10.8,10.7c2,3.3,3.2,6.8,3.3,10.5
			c0.2,4,0.3,8-0.6,12c-1,4.7-2.5,9.2-4.6,13.5c-1.8,3.7-4.2,7.1-6.7,10.4c-1.8,2.5-3.8,4.9-7.3,5.3c-2,0.2-3.8,1.1-5.8,1.2
			c-3.3,0.2-6.6,0.5-9.9-0.7c-3-1-5.6-2.2-8.3-3.6c-3.7-2.1-6.5-5.1-8.8-8.6c-2.9-4.2-4.5-8.9-5.8-13.8c-1-3.7-1.1-7.3,0.3-10.9
			c1.4-4,3.1-7.9,5.1-11.8c1.3-2.5,2.7-5.1,4.5-7.3c2.4-3,4.4-6.1,7.2-8.6c2.4-2.2,4.8-4.2,7.5-6c1.8-1.1,3.9-1.7,5.7-3.2
			c-2.1-0.3-4.2-0.3-5.9,0.7c-2.9,1.6-5.5,3.5-7.9,5.9c-1.2,1.2-3.1,1.9-4,3.5c-2,3.3-3.9,6.8-6.1,10c-2.7,4-5,8.1-6.7,12.6
			c-2.3,5.8-3.2,12-1.4,17.9c1.5,5.5,4,10.8,8.2,15.1c2.4,2.3,4.7,4.6,7.5,6.4c1.1,0.7,2.3,1.1,3.3,1.7c1.4,1.1,3.1,1.9,4.7,2.4
			c2.2,0.7,4.3,1.6,6.6,2.2c1.5,0.4,2.6,1,4.4,0c3.1-1.6,6.2-3,9.1-4.8c2.9-1.8,5.5-3.7,8-6c3.9-3.4,6.5-7.7,8.3-12.5
			c0.1-0.4,0.2-0.9,0.8-1c0.3,0.8,0.8,1.4,0.5,2.2c-0.6,2-0.4,4,0,6c0.9,4.4,3.3,7.6,7.4,9.4C454.7,426.9,455.5,426.7,455.7,427.4z
			 M22.2,443.1c0.9,0.3,1.6,0,2.4,0.3c0.8,0.3,1.6,0.2,2.4,0.1c2.1-0.1,3.1-1.2,2.7-3.2c-0.7-4.3-1-8.6-1.3-12.9
			c-0.3-2.8-0.5-5.5-0.7-8.3c-0.3-4.7-1-9.4-1.2-14.1c-0.2-3-0.5-5.8-0.7-8.8c-0.3-5.5-0.7-10.8-1.1-16.3c-0.2-3.1-0.2-6-0.4-9.1
			c0-0.2,0-0.5,0-0.7c-0.4-3.6-0.7-7.2-0.6-10.9c1.2,0.4,1.2,1.4,1.7,2.1c2.1,2.9,4,5.8,5.7,9c1.7,3.1,3.5,6.1,5.1,9.3
			c1.4,3.1,3.1,6,4.7,9c1.7,3.1,3.6,6,5.3,9.1s2.3,3.6,5.7,3.5c1.5-2.8,3-5.5,4.4-8.4c2.2-4.4,4.7-8.6,7.2-12.8
			c1.8-3.1,3.9-5.8,5.9-8.7c1.5-2.2,3-4.7,4.9-6.6c2.3-2.4,4.3-5.1,6.8-7.4c1.6-1.4,3.3-3,5.1-4.7c0.7,2.4,1.3,4.4,1.7,6.5
			c0.8,4.5,1.6,9,2.1,13.5c0.5,4.9,0.9,9.8,1.1,14.7c0.3,4.9,0.5,9.8,0.7,14.7c0.2,4.9,0.6,9.7,1,14.4c0.4,4.3,1,8.5,1.7,12.7
			c1.5,0.1,2.8-0.5,4.1-0.9c2.3-0.8,4.7-0.8,7.1-1.6c2.4-0.8,5.1-0.9,7.6-1.7c1.7-0.6,3.6-0.8,5.5-1c0.7-0.1,0.7-0.6,0.8-1
			c-1.6-0.4-3.4-0.2-4.8,0.4c-2.2,1.1-4.6,1.3-6.7,2.3c-2.2,1-4.8,0.8-7.3,1c-2,0.1-2.9-0.8-3.4-2.4c-0.4-1.1-0.9-2.3-1.1-3.4
			c-1.3-5.5-1.9-11-1.9-16.6c0-3.6-0.6-7.4-0.4-11c0-0.2,0-0.5,0-0.7c-0.2-2.2-0.5-4.5-0.7-6.1c1.4-1.8,3.3-2.4,4.9-3.2
			c2.4-1.1,5.2-0.9,7.7-1.5c1.4-0.4,3.3-0.3,4.8-0.5c1.1-0.2,2.6,0.2,3.5-1.1c-2.8,0.4-5.5-0.7-8.2,0.5c-1.3,0.6-3.1,0.4-4.5,0.8
			c-1.2,0.3-2.6,0-3.9,0.8c-0.4,0.3-2.1,1.4-2.9-0.3c-1.7-3.9-2.7-8-2.6-12.3c0.1-3.2,0.4-6.3,0.9-9.4c0.7-4.5,1.5-9,2.1-13.4
			c2.3-0.2,4.4-0.9,6.6-0.9c1.4,0,3,0.1,4.3-0.3c3.3-0.8,6.8-0.2,10.1-1.2c1.3-0.5,3.1,0.1,4.5-0.6c-1.2-0.8-2.5-1.3-3.9-1.4
			c-3.9-0.3-7.7,0.4-11.6,1.1c-2.6,0.5-5.2,0.8-7.7,0c-3.1-1-5.3-3.1-7.1-5.9c-1,2.2-2.4,3.9-3.6,5.6c-2.3,3.3-4.7,6.7-7,10
			c-2.2,3.2-4.3,6.3-6.5,9.5c-3.4,5-6.9,9.9-10.3,14.9c-2.7,3.9-5.5,7.8-8.1,11.8c-1.1,1.6-2.3,3.2-3.3,4.9
			c-0.8,1.2-1.8,0.9-2.7,1.2c-0.8,0.3-1.3-0.6-1.6-1.2c-0.8-1.8-1.8-3.4-2.8-5.2c-2.4-4.4-4.9-8.7-7.4-13.1c-2.5-4.3-5-8.7-7.3-13.2
			c-2.1-3.9-4.5-7.7-6.5-11.9c-0.7-1.4-1.6-2.9-3.7-2.3c-0.2,0.1-0.5,0.1-0.8,0.1c0.1,0.2,0.2,0.3,0.2,0.4c0.5,4.6,1,9.1,1.3,13.7
			c0.4,4.2,0.8,8.3,1,12.5c0.2,3.9,0.6,7.8,0.7,11.8c0.1,4,0.4,8.1,0.4,12.1c0,6.5,0,13.1,0,19.6C22.2,427.1,22.2,435.1,22.2,443.1z
			 M127,395.6c-0.1,0.9,0.6,1.4,0.7,2.1c0.6,3.3,1.1,6.7,1.1,10.1c0,6.4-0.3,12.9,0.3,19.3c0.1,1.1,0.3,2.4,0.9,3.6
			c0.8-4.2,1-8.3,1.1-12.4c0.2-7.1-0.3-14.2,0.4-21.3c0.2-1.9,0-4,2.3-5.2c0.7-0.3,1.4-1.1,2-1.6c3.5-3.3,7.5-6.2,11.1-9.4
			c1.3-1.1,2.7-2.3,3.9-3.4c10,13.9,20.1,27.7,30.1,41.5c1.6-0.5,1.5-1.3,1.1-2.5c-1-2.5-2.3-4.8-3.6-7.1c-2.6-4.1-5.6-7.8-8.8-11.5
			c-2.5-2.9-4.9-5.9-7.1-9c-3.3-4.6-5.5-9.7-6.5-15.1c-0.2-1-0.7-2.2,0.1-3.1c1.3-1.4,2.6-3.2,4.1-4.4c3-2.5,5.4-5.3,7.4-8.4
			c1.6-2.6,1.4-3.2-1.2-4.3c-0.1,0-0.1-0.1-0.1-0.1c-1.6-0.9-3.2-1.9-4.9-2.7c-1.5-0.7-2.9-1.5-4.3-2.3c-1.2-0.7-2.7-1.1-3.8-1.8
			c-2.8-1.8-6-2.6-9-3.7c-1.7-0.6-3.6-0.9-5.5-0.8c-0.3,0-0.7,0-1.1-0.2c-1.8-1.2-4.1-0.3-4.6,1.8c-1.5,7.4-1.8,14.9-2.3,22.5
			c-0.2,2.9-0.1,5.7-0.2,8.6c-0.2,3.3-0.2,6.7-0.5,10c-0.1,1.6,0.4,3.6-1.2,5c-1,0.8-1.8,1.6-2.8,2.3c-1.1,0.9-1.8,1.7-1.7,3.3
			C125.1,395.6,125.9,395.6,127,395.6z M588.1,413.9c-0.6,0-1.1-0.1-1.5,0c-2.6,0.4-5.2,0.7-7.7,1.3c-1.2,0.3-2.4,0.2-3.6,0.5
			c-2,0.4-4,0.7-6,1.1c-3.2,0.5-6.4,1-9.6,1.4c-2.7,0.5-2.6,0.6-3.3-1.9c-1.3-5-1.8-10.1-2.1-15.3c-0.3-3.7,0-7.5-0.1-11.3
			c0-0.6,0.1-1.1,0.4-1.5c2.4-2.6,5.5-3.9,8.8-4.7c1.8-0.4,3.7-0.5,5.6-0.4c2.6,0.1,5.3,0,8.1,0c-1-0.7-1.8-0.7-2.7-0.7
			c-2.1,0.1-4.2,0-6.3,0.3c-3.6,0.4-7.4,0.6-11,0.4c-1.1,0-2,0-3-0.6c-0.1-1.5-0.3-3.1-0.3-4.5c0-4.7-0.6-9.4-0.4-14.2
			c0-0.4-0.2-0.8,0.2-1.1c2-1.7,4.2-3.3,6.5-4.5c2.2-1.2,4.6-2.2,7.1-3c3.6-1.1,7.4-2.1,11.1-3c1.7-0.4,3.4-0.5,5.1-0.8
			c0-1.9,0-3.7,0-5.5c-1.6-0.4-3,0.8-4.5,0.8c-0.6,0-1.3,0-2,0.3c-2.9,1.1-5.8,2-8.8,3c-0.7,0.2-1.3,0.2-2,0.5
			c-3,1.4-6.2,1.9-9.4,2.6c-2.2,0.5-4.4,0.3-6.7,0.4c0.6,1.4,0.5,2.7,0.4,4c0,8,0.2,16-0.6,24c-0.3,2.8-0.5,5.6-0.7,8.5
			c-0.3,5.7-0.8,11.5-1,17.2c-0.2,4.4,0,8.8,0,13.2c0,0.5-0.2,1.1,0.4,1.5c1.5-0.5,3.1-1.1,4.6-1.7c1.8-0.7,3.7-0.9,5.6-1.3
			c2.4-0.7,5-0.5,7.5-0.8c3.3-0.3,6.8-0.3,10.2-0.9c3.8-0.6,7.6-1,11.4-2C588.1,415.1,588.1,414.6,588.1,413.9z M15.8,510.9
			c-0.9-2.9-1.2-5.8-1.8-8.8c-1.1-6.3-2.4-12.6-3.4-18.9c-0.2-1.2-0.5-2.6,1.3-3.2c0.3-0.1,1.1-0.7,0.8-1.5c-0.3-0.8-1-0.8-1.5-0.6
			c-1.5,0.4-3,0.4-4.5,0c-0.7-0.2-1.1,0.3-1.3,0.9c-0.4,0.7,0.1,1.1,0.4,1.3c1.1,0.6,1.1,1.5,1.3,2.6c0.6,3.3,1.1,6.4,1.7,9.7
			c1.3,7.2,2.7,14.3,3.9,21.6c0.3,1.5,0.3,3.2,1.6,4.8c3-5.3,4.5-11,7.3-16.4c1.3,5.5,1.9,10.9,3.6,16.2c0.7-0.4,1.1-0.7,1.3-1.1
			c1.2-2.2,2.1-4.5,3.1-6.8c2.2-5.4,4.2-10.9,6.2-16.4c1.1-3,2-5.9,3.3-8.8c0.9-2,1.1-4.6,3.7-5.4c0.3-0.1,0.8-1.1,0.4-1.7
			c-0.3-0.6-1.1-0.6-1.4-0.4c-0.9,0.4-1.8,0.2-2.7,0.3c-1.1,0.2-2.1-0.5-3.2-0.3c-0.6,0.1-1,0.2-1,0.9c-0.1,0.7,0.2,1.1,0.8,1.4
			c1.8,0.7,2.3,1.5,1.7,3.4c-1,3.1-1.9,6.2-3,9.3c-1.4,3.9-2.9,7.7-4.5,11.6c-1,2.2-1.6,4.6-3.2,6.8c-0.9-3.9-1.6-7.6-2.4-11.4
			c-0.4-1.8-1-3.6,0.1-5.5c1.6-3,2.6-6.1,3.8-9.3c0.8-1.9,0.9-4.2,3.3-5.2c0.8-0.3,0.8-1.1,0.5-2c-2.2,0.3-4.4,0.7-6.6,0.1
			c-0.5-0.1-1,0.1-1.1,0.8c-0.1,0.8,0.1,1.3,1,1.6c1.1,0.3,1.4,1,1.3,2c-0.4,3.7-2.1,7.1-3.5,10.9c-0.7-3.5-1.4-6.6-1.9-9.8
			c-0.3-1.4-0.1-2.8,1.3-3.6c0.8-0.5,0.8-1.1,0.5-1.9c-2.2-0.1-4.4,0.8-6.6,0c-0.6-0.2-1.5-0.4-1.7,0.7c-0.2,1,0.3,1.4,1.2,1.7
			c1.1,0.4,1.8,1.1,2,2.4c0.8,4.1,1.7,8.2,2.5,12.3c0.3,1.4,1.1,3.1,0.4,4.5C19.1,503.4,17.8,507.3,15.8,510.9z M208.2,346.6
			c-0.8-0.2-1.1-0.3-1.6-0.4c-1.8-0.4-3.7-0.3-5.4,0.3c-3.2,1.1-5.8,3.3-9.1,4.5c-0.9,0.3-1.7,0.7-2.2,1.5c-1,1.4-2.3,2.7-3.6,3.8
			c-3.6,3.1-6.9,6.4-9.7,10.1c-2.7,3.6-4.1,7.8-4.3,12.3c-0.2,5.8,2.5,10.6,5.4,15.3c1.5,2.6,3.3,5,5.5,7.1c2.1,2.2,4.1,4.5,6.5,6.4
			c2.1,1.7,4.1,3.6,6.2,5.5c2.6,2.2,5.1,4.6,7.6,7s4.5,5.2,7,7.5c1-2.7,3.3-5.2,2.6-8.6c-1.4,0.2-2.8,0-3.9,1
			c-0.3,0.2-0.6,0.2-0.9-0.1c-0.8-1.1-2-1.5-3.1-2.3c-2.4-1.8-4.9-3.5-7.2-5.5c-3.8-3.3-7.6-6.7-10.8-10.5
			c-3.2-3.6-5.8-7.6-7.9-11.9c-1.8-3.7-2.8-7.6-3.5-11.7c-0.7-3.3,0.5-5.8,2-8.3c1.7-2.7,3.6-5.3,5.8-7.6c3.9-4.1,8.4-7.4,13.4-10.1
			c2.2-1.2,4.5-2.2,6.8-3.3C205.2,347.9,206.7,347.6,208.2,346.6z M563.6,497.9c-0.4-1.1-0.1-2.3-0.5-3.4c-0.6-1.5-1.3-2-2.9-1.2
			c-1.1,0.6-3,4.4-2.8,5.7c0.1,0.4,0.3,0.7,0.7,0.9c0.5,0.2,0.7-0.2,0.8-0.6c0.2-1,0.9-1.6,1.6-2.4c0.5,1.1,1.1,2.2,0.9,3.3
			c-0.7,4.2-0.9,8.4-1.5,12.6c-0.3,1.5-0.6,3.2,0.1,4.8c1.1-0.1,2.7,0.7,2.8-1.2c0.2-3.4,0.8-6.8,1.1-10.1c0.3-3.1,1-6.1,2.4-8.9
			c0.5-0.9,1.5-1.3,2.5-1.1c0.9,0.1,1.4,0.6,1.7,1.6c0.7,2.3,0.1,4.6-0.1,6.9c-0.2,2.3-0.6,4.6-0.9,6.9c-0.2,2-0.8,3.9-0.3,6
			c1,0.1,1.8,0.1,2.7-0.1c0.4-3.6,0.6-7.2,1.1-10.6c0.5-2.9,0.6-5.9,2.1-8.6c0.7-1.2,1.3-2.5,3-2.1c1.5,0.4,1.3,1.8,1.4,3.1
			c0.1,5.2-0.8,10.3-0.7,15.6c0,1.1,0.2,2.3,1.2,2.9c1.1,0.6,1.8-0.3,2.5-1c0.1-0.1,0.4-0.1,0.4-0.2c1.1-1.4,2.4-3,2.4-5
			c-2.1-0.5-1.5,2.7-3.5,2.4c0-1.7-0.1-3.4,0-5.1c0.3-4.3,1-8.6,0.3-12.9c-0.5-2.5-3.4-3.9-5.5-2.3c-1.3,1.1-2.6,2.3-3.3,4
			c0-0.7-0.4-1.1-0.5-1.8c-0.1-1.1-0.5-2.2-1.7-2.5c-1.3-0.3-2.8-0.4-3.8,0.5C565.8,494.8,564.5,496,563.6,497.9z M389.5,493.3
			c-0.3,1.4-0.7,2.8-0.8,4c-0.2,4.1-1,8-2.4,11.9c-0.7,1.9-1.5,3.9-3.7,5.1c-1-2.7-0.9-5.4-0.6-8c0.4-3.6,0.7-7.4,0.5-11
			c-0.1-1.7-0.9-2.4-2.3-2.3c-1.6,0.2-2.3,1.5-2.9,2.7c-1.5,2.9-2,6.1-1.6,9.4c0.2,1.6,0.3,3.5,2.5,4c0.5,0.1,0.7,0.7,0.8,1.1
			c0.1,1.1,0.4,2.1,0.4,3.3c0,1.2,0.3,2.4,0.9,3.5c0.7,1.1,2,1.2,3,0.3c2.6-2.2,3.8-5.2,5.2-8.3c0.1,2.2-0.2,4.2,0.4,6.1
			c0.3,1.1,0.2,2.4,1.6,2.8c1.4,0.4,2.2-0.3,3.1-1.2c1.7-2.1,3.2-4.3,4.2-6.8c2-5,2.7-10,2.2-15.4c-0.1-1-0.7-1.4-1.6-1.3
			c-1,0.1-1,0.9-1.1,1.5c-0.2,1.4,0.6,2.6,0.7,3.9c0.3,4.6-0.6,8.9-2.7,12.8c-0.6,1.1-1.3,2.8-2.9,2.4c-1.4-0.4-1.1-2.1-1.2-3.3
			c-0.3-3.5,0.2-7.2,0.4-10.7c0.1-1.1-0.5-2.3,0.2-3.4c0.6-0.9,0.5-1.9,0.2-3C391,493.3,390.3,493.3,389.5,493.3z M139.5,485.4
			c-1.1,0.7-2.5,0.8-2.8,2.1c-0.3,1.4-0.4,3-0.4,4.5c0.1,1.5-0.6,2.4-1.8,2.8c-1.5,0.5-1.6,1.3-0.8,2.6c0.6-0.6,1.2-1.1,2-1.2
			c-0.2,2.4-0.2,4.7-0.5,7c-0.5,5.7-1,11.5-1.6,17.2c-0.3,2.3,0.6,5.2-2.3,6.7c-0.3,0.2-0.4,0.6-0.3,0.9c0.2,0.5,0.7,0.5,1.1,0.5
			c2.2,0,4.5,0,6.7,0c0.1,0,0.2-0.1,0.3-0.2c0.1-0.5,0.2-1-0.2-1.3c-2.2-0.2-2.6-0.8-2.8-3.1c-0.1-1.7,0.4-3.3,0.4-5
			c0-0.7,0.2-1.1,1.3-1.1c1.1,0.1,2.5,0.2,3.5-0.4c2.6-1.5,4.4-3.7,5.5-6.4c1.7-4.1,2.5-8.2,1.4-12.7c-0.7-3.1-3.5-5.7-6.1-5.4
			c-1.1,0.2-2.1,0.1-3.2,0.2C139,490.6,140,488.2,139.5,485.4z M70.1,496.2c0.7-6.9,1.4-13.4,2.1-20c-2.4-0.1-4.5-0.1-6.4,1.5
			c0.7,0.5,1.1,0.3,1.5,0.5c0.7,0.4,1.7,0.6,1.5,1.6c-0.3,2.2-0.4,4.4-0.7,6.6c-0.7,5.1-1,10.2-1.6,15.4c-0.4,3.3-0.9,6.6-1.2,9.8
			c-0.2,1.8-0.8,3.7-0.2,5.5c1,0,1.8,0.2,2.7-0.1c0.3-3.2,0.6-6.3,1.1-9.5c0.5-3.3,1.1-6.6,2.5-9.8c0.6-1.2,1.4-2,2.7-1.8
			c1.4,0.2,1.5,1.6,1.6,2.6c0.3,3.4-0.3,6.8-0.5,10.1c-0.2,2.4-0.5,4.9,0.2,7.3c0.4,1.5,1.6,1.8,3,0.9c1.4-1.1,2.2-2.6,3.1-4.2
			c0.3-0.6,0.4-1.1-0.3-1.3c-0.6-0.3-1,0.1-1.1,0.8c-0.2,0.9-0.8,1.3-1.8,1.2c-0.4-3.3,0.2-6.3,0.4-9.4c0.2-3,0.4-5.8-0.3-8.7
			c-0.4-1.9-1.5-2.6-3.5-2.5C72.7,493,71.7,494.7,70.1,496.2z M284.8,493.5c-1.9-1.1-3.8-1.1-5.5,0.1c-1.3,1-2.4,2.5-3.2,4
			c-1.4,3.3-2.7,6.6-3,10.2c-0.3,2.7-0.4,5.2,0.8,7.6c1.2,2.8,4.9,2.6,6.7,1.1c1.3-1.1,1.8-2.6,3.1-3.9c0,1-0.1,1.6,0,2.3
			c0.2,1.1,0.7,2,1.6,2.4c0.9,0.4,1.5-0.3,2.2-0.8c1.6-1.1,1.9-2.9,2.6-4.4c0.2-0.5,0.2-1.2-0.6-1.5c-1,0.4-1.1,1.2-1.5,2
			c-0.2,0.4-0.4,1.1-1,0.9c-0.6-0.1-0.8-0.7-0.8-1.2c0-1.5-0.1-3.2,0.1-4.7c0.5-5,1.2-9.9,1.2-14.9c0-2.2,0.8-4.2,0.9-6.4
			c0.1-1.2,0.1-2.6,0.3-3.8c0.3-2.2,0.8-4.3,0.4-6.5c-3-0.4-5.5,0.6-5.6,2c2.4,0.3,2.5,0.4,2.4,2.9c0,1.4-0.3,2.9-0.4,4.3
			C285.4,488,285.1,490.8,284.8,493.5z M112.2,528.4c0.3-1.1-0.1-1.6-1.2-1.6s-1.7-0.7-1.6-1.9c0-2.1,0.1-4.1,0.4-6.1
			c0.1-0.8,0.3-1.1,1.2-1c2.6,0.3,4.7-0.7,6.4-2.6c3.9-4.6,5.2-9.9,4.4-15.8c-0.3-1.9-0.8-3.7-2.3-5.2c-2.2-2-4.8-1.3-7.5-1.2
			c0.2-1.6,0.5-3.3,0.7-5c0.1-0.9,0.3-2.1-0.7-2.2c-0.8-0.1-1.9,0.6-2.2,1.6c-0.3,1.1-0.4,2.4-0.4,3.5c0,1.8,0,3.4-2.3,3.9
			c-0.8,0.2-1.1,1.1-0.9,1.8c0.5,1,1.1,0.1,1.6-0.1c0.3-0.1,0.5-0.2,0.9-0.4c0,1,0.1,1.8,0,2.7c-0.4,4-0.9,8.1-1.2,12.1
			c-0.4,4.3-0.7,8.6-1.1,12.9c-0.1,1.1-0.5,2.2-1.5,2.8c-0.8,0.4-0.8,0.9-0.6,1.6C106.8,528.4,109.5,528.4,112.2,528.4z
			 M314.2,517.3c0.2-0.7,0.4-1.2,0.5-1.8c0.2-3.7,0.6-7.5,1.3-11.2c0.5-2.6,1-5.1,2.6-7.3c0.6-0.8,1.2-1.1,2.1-1
			c0.9,0.1,1,0.8,1.2,1.4c1.1,2.9,0.3,5.7,0.1,8.6c-0.2,3.2-0.1,6.3-0.2,9.4c0,0.9,0.6,1.7,1.4,1.9c0.8,0.2,1.5-0.1,2-0.9
			c0.2-0.3,0.7-0.4,0.9-0.7c1-1.3,2.1-2.7,1.8-4.5c-1.7-0.2-1.5,1.9-2.9,2.1c-0.8-0.9-0.9-1.9-0.6-2.9c0.2-1,0.1-1.9,0.3-2.9
			c0.4-2,0-4.1,0.4-6.1c0.5-2.4,0-4.6-0.7-6.8c-0.7-2.4-3.6-2.9-5.5-1.1c-0.8,0.9-1.7,1.5-2.5,2.3c0.7-6.5,1.3-13.2,2-19.8
			c-4.5-0.3-5.7,0.1-5.8,1.7c2.3,0.4,2.7,0.8,2.4,3.1c-0.2,1.3-0.2,2.6-0.3,3.8c-0.4,4.2-0.9,8.4-1.2,12.7c-0.4,3.3-0.8,6.6-1.1,9.9
			c-0.4,2.9-0.8,5.7-1.1,8.6c-0.1,0.6,0.3,1.2,1.1,1.1C313.1,517.3,313.6,517.3,314.2,517.3z M537,513.6c-1.1-0.9-0.9-2-0.8-3
			c0.6-4.5,1.1-9.1,0.6-13.7c-0.2-1.5-0.2-3.4-2.1-4c-1.7-0.5-3.4-0.2-4.7,1.5c-0.5,0.6-0.7,1.5-1.7,1.7c0.7-6.7,1.3-13.4,2.1-20
			c-5.1-0.2-5.7,0.1-5.8,1.8c2.2,0.3,2.7,0.8,2.5,3.1c-0.1,1.7-0.5,3.4-0.6,5.1c-0.4,4.1-0.6,8.1-1.1,12.2c-0.6,5.5-1.3,11-1.9,16.4
			c-0.3,2.6-0.2,2.6,2.5,2.4c0.2-0.5,0.5-1.1,0.5-1.6c0.2-4.3,0.8-8.6,1.6-12.9c0.4-2,1-4,2.3-5.7c0.9-1.1,2.7-1.3,3.1-0.2
			c0.5,1.2,1,2.7,0.8,4c-0.7,4.9-0.6,9.8-0.6,14.5c0,1.1,0.6,1.7,1.4,2.1c0.8,0.3,1.5,0,2-0.9c0.2-0.3,0.7-0.4,0.9-0.7
			c1-1.3,2.1-2.7,1.8-4.5c-0.9-0.2-1.2,0.3-1.5,0.9C538,512.9,537.6,513.3,537,513.6z M189.2,526.9c-2.3-0.2-2.8-0.8-2.9-2.9
			c-0.1-1.7,0.4-3.4,0.4-5.2c0-0.7,0.2-1.1,1.3-1.1c4.1,0.3,6.5-2.3,8.4-5.5c2.5-4.2,2.6-8.8,2.3-13.6c-0.3-3.2-3.3-6.4-6.5-5.9
			c-1,0.1-1.9-0.1-2.8,0.3c-0.7-2.6,0.6-5,0-7.4c-1.5,0.1-2.8,1.1-2.8,2.4c0,1.9-0.6,3.8-0.3,5.7c-3.2,1.3-3.3,1.3-2.7,3.5
			c0.6-0.6,1.2-1.1,2.1-1.2c-0.2,4.1-0.8,8.2-1,12.2c-0.3,4.4-0.9,8.7-1.1,13c-0.1,1.9,0.2,4.3-2.2,5.5c-0.7,0.4-0.3,1.2,0.6,1.3
			c2.4,0.1,4.9,0,7.3,0C189.2,527.9,189.2,527.4,189.2,526.9z M447.5,478c2.5,0.4,2.9,0.6,2.5,2.8c-0.2,1.2-0.2,2.6-0.4,3.8
			c-0.4,3.6-0.9,7.3-1.2,10.9c-0.3,2.4-0.4,4.7-0.7,7.1c-0.5,3.8-1.1,7.6-0.9,11.4c0.1,2,1.3,3.3,3.3,3.6c3.4,0.6,5.8-1.1,7.7-3.6
			c3.5-4.7,4.7-10.1,4.2-16c-0.2-2.3-1.1-4.3-3.3-5.2c-1.8-0.8-4.3,0.2-5.8,2.1c-0.6,0.8-1.1,1.4-1.8,2.1c0.8-7,1.4-13.9,2.2-20.8
			C449.6,475.9,447.9,476.4,447.5,478z M500.8,504.7c0-0.7-0.1-1.1,0-1.7c0.4-3.3,1-6.5,0.9-9.8c-0.1-2.3,0.7-4.5,0.9-6.7
			c0.1-1.3,0.1-2.7,0.4-4c0.3-2,0.1-4.2,0.1-6.3c-2.2-0.2-4,0.1-5.9,1.6c3,0.8,3.3,1.3,2.9,3.9c-0.1,0.5-0.1,1.1-0.2,1.6
			c-0.2,2.6-0.3,5.3-0.7,7.8c-0.6,3.9-0.8,7.9-1.2,11.9c-0.4,2.9-0.5,5.7-0.9,8.6c-0.2,1.8-0.7,3.6-0.3,5.5c1,0.1,1.8,0.2,2.8-0.1
			c0.4-3,0.7-5.9,1.1-8.9c0.2-1.3,0.8-2.3,2.3-2.6c0.3,0.8,0.7,1.4,1,2.1c1.2,2.9,2.4,5.8,3.5,8.7c0.3,0.8,1.1,1.1,1.8,1.1
			c0.8,0,1.4-0.6,1.6-1.2c0.6-1.6,1.6-3.1,1.7-4.9c0-0.7,0.1-1.1-0.7-1.3c-0.1,1-0.9,1.6-1.2,2.4c-0.4,0.8-1.1,0.8-1.5-0.2
			c-1.3-2.3-2.2-4.8-3.1-7.3c-0.3-0.8-1.1-1.8,0-2.8c1.2-1.1,2.6-2.3,3.4-3.6c0.9-1.1,1.8-2.4,1.5-4.1c-0.1-0.8,0.3-1.7-1.1-1.8
			c-1.1,0-1.7,0.3-2,1.5C506.9,498.8,504.5,502.1,500.8,504.7z M272.6,511.4c-1-0.2-1-0.2-3.3,2.7c-0.8-0.8-0.7-1.8-0.6-2.7
			c0.6-3.5,0.6-7.1,0.7-10.6c0-1.7,0.3-3.4-0.4-5.2c-1.1-3.1-3.8-3.8-6.3-1.7c-1.3,1.1-2.4,2.6-3.4,4.2c-0.2-1.4,0-2.6-0.4-3.7
			c-0.5-1.4-1.3-1.9-2.8-1.1c-1.6,0.9-3.3,5.3-2.5,6.9c0.1,0.1,0.2,0.2,0.4,0.4c1.1-1.1,1-3.2,2.7-3.6c1.1,2,0.4,3.9,0.3,5.9
			c-0.2,2.4-0.6,4.8-0.8,7.2c-0.2,2.5-0.8,4.9-0.3,7.5c1.1-0.2,2.5,0.7,2.8-1.1c0.4-3.3,0.7-6.5,1.1-9.8c0.3-3.3,0.9-6.4,2.6-9.3
			c0.7-1.1,1.5-1.5,2.7-1.2s1.8,1.1,1.8,2.4c0.1,3.2-0.4,6.3-0.6,9.6c-0.2,2.7-0.2,5.5-0.1,8.1c0.1,1.6,1.4,2.3,2.7,1.3
			C270.6,515.7,272.1,513.9,272.6,511.4z M237.6,496.5c-0.2,3.5-0.3,6.9-0.7,10.1c-0.6,5.1-0.9,10.2-1.3,15.3c-0.1,1.3,0,3-1.4,3.8
			c-0.6-0.5-0.6-1.1-0.8-1.8c-0.1-0.4-0.3-0.7-0.8-0.8c-0.6-0.1-0.7,0.4-0.8,0.7c-0.1,1.5-1.1,3,0.1,4.5c1.1-0.1,2,0.2,3.1-0.7
			c1.9-1.6,2.8-3.6,3.2-5.9c1-6,1.2-12.2,1.7-18.4c0.2-2.3-0.1-4.8,0.9-7c3.8-0.3,3.8-0.3,3.5-2.4c-1.1,0-2.2,0-3.3,0
			c-0.5-1.6,0.2-3.1,0.2-4.5c-0.1-3,0.8-5.8,1.7-8.6c0.3-0.7,0.7-1.8,1.8-1.9c1.1-0.1,1.1,1,1.4,1.4s0.7,1.1,1.4,0.7
			c0.1-1,0.5-1.9,0.4-3c-0.2-2-2-2.9-3.6-1.8c-1.9,1.2-3.1,3.2-3.9,5.2c-1.5,3.5-1.9,7.3-2.6,11c-0.2,1.1-0.6,1.5-1.6,1.4
			c-0.4,0-0.8,0-1.1,0c-0.9,0-1.1,0.4-1.1,1.1c0,0.8,0.4,1.1,1.1,1.1C235.8,496.5,236.6,496.5,237.6,496.5z M473.4,512.7
			c0.7,1.4,0.6,2.8,1.2,3.9c0.8,1.1,1.9,1.2,3,0.3c1.5-1.5,2.1-3.4,2.8-5.5c0.3-0.9-0.1-1.2-1-1.2c-0.4,0.8-0.7,1.5-1.1,2.3
			c-0.2,0.4-0.4,1-1,1c-0.7-0.1-0.8-0.7-0.8-1.2c-0.2-2.7,0.2-5.4,0.5-8.1c0.3-3,0.9-5.9,1.1-8.9c0.1-1.1,0.7-2.5-0.6-4.1
			c-0.4,3.4-2.2,2.2-3.9,1.8c-1.1-0.3-2.3-0.2-3.2,0.7c-1.6,1.5-3,3.2-4,5.2c-2.5,4.7-3.6,9.7-3.3,15c0.1,1.5,0.6,3.2,2,3.7
			c1.6,0.6,3.3,0.6,5-0.8C471.5,515.6,472.5,514.3,473.4,512.7z M415.1,513.4c-1.1-2.3,0.1-4.6-0.2-6.9c-0.1-1.1-0.2-2.4,0.1-3.3
			c0.9-2.5,0.6-5,1.1-7.5c0.3-1.1,0.6-2.3,0.4-3.5c-0.1-0.3,0-0.7-0.4-0.8c-0.4-0.1-0.5,0.3-0.6,0.6c-0.3,0.7-0.8,1.2-1.1,1.9
			c-1.9-1.4-4-1.6-5.6-0.5c-1.4,1-2.5,2.4-3.3,3.8c-1.6,2.6-2.8,5.4-3.4,8.3c-0.8,3.3-1.1,6.4-0.2,9.7c0.9,3,3.9,2.9,6,1.6
			c1.9-1.1,2.7-3,4.1-4.7c-0.1,1.8,0.2,3.3,1.2,4.7c0.8,1,1.7,0.9,2.2,0.4c1.5-1.8,3.3-3.6,2.8-6.3
			C416.2,510.8,416.9,513.5,415.1,513.4z M421.6,497.5c1.4,0.4,1.8,1.7,2.4,2.9c1.9,4.1,3.3,8.4,4.2,12.9c0.9,4.2-0.7,7.7-3.2,10.8
			c-1.4,1.7-1.9,1.6-3.5,0.2c-0.3-0.2-0.5-0.3-0.7-0.3c-0.6,0-1.2-0.2-1.4,0.5c-0.3,1.1-0.4,2.2,0.4,3.1c1.4,1.6,4,1.3,5.5-0.6
			c2.8-3.4,4.1-7.5,5.4-11.6c1.3-4.5,2.3-9,2.8-13.6c0.3-2.5,0.9-5,0.1-7.6c-0.2-0.8-0.6-1.2-1.4-1.2c-0.9,0-1.1,0.4-1.2,1.1
			c0,0.5-0.2,1,0,1.5c1.4,4.7,0.9,9.3-0.4,13.8c-0.8-2.5-1.4-4.9-2.3-7.4c-1.1-2.9-2-5.7-3.7-8.2c-0.9-1.3-3.3-1.3-3.9,0
			c-1.3,2.6-1.5,5.3-1.2,8.5C420.8,500.9,420.3,498.8,421.6,497.5z M540.9,508.2c-0.2,2.3,0.2,4.8,1.6,7.1c0.8,1.1,1.5,2.1,3,2.4
			c3.5,0.7,6-0.7,7.9-3.6c3.1-4.9,3.3-10.2,2.4-15.7c-0.4-1.9-1.2-4.1-3.2-4.9c-3.2-1.3-6-1-8.1,2.1
			C541.8,499.2,540.7,503.3,540.9,508.2z M181.5,503.6c0-2.6-0.3-4.6-1-6.5c-0.8-2.1-2-3.7-4.3-4.2c-3.6-0.7-6.1,1.2-7.6,4.1
			c-2.6,4.9-3.3,10.1-2.1,15.7c0.6,2.2,1.7,4.4,3.9,5c2.8,0.8,5.4,0,7.4-2.5C180.5,511.5,181.1,507.3,181.5,503.6z M98.6,478
			c2.6,0.4,2.8,0.6,2.6,3.2c-0.2,2.8-0.4,5.5-0.7,8.3c-0.4,3.9-0.9,7.7-1.2,11.7c-0.3,3-0.8,5.9-1,9c-0.1,2-0.4,4.1,0.3,6.1
			c0.4,1.2,1.3,1.7,2.5,1.1c1.1-0.7,2.4-1.3,2.8-2.8c0.1-0.6,0.3-1.1,0.8-1.5c1.1-0.9,1-1.9,0.8-3.3c-2.1,0.5-1.6,3.5-3.8,3.6
			c-0.3-0.5-0.3-1-0.2-1.3c0.7-3.3-0.1-6.9,0.9-10.2c0.6-2.1,0.1-4.4,0.7-6.7c0.7-2.5,0.5-5.2,0.8-7.6c0.3-3.3,0.7-6.7,1.1-10
			c0.2-1.3-0.2-1.8-1.5-1.4c-1,0.3-2,0.6-3,0.6C99,476.4,98.7,477,98.6,478z M204.9,513.4c-0.5-0.3-0.6-0.7-0.6-1.1
			c0.1-2,0-4,0.4-5.9c0.9-3.7,0.3-7.5,1.1-11.2c0.7-3.1,0.6-6.3,0.9-9.5c0.1-1-0.4-1.9,0.1-2.8c1-2.1,0.7-4.3,1.2-6.6
			c-2.4,0.1-4.7-0.4-6.6,1.7c3.1,0.8,3.1,0.8,3,3.5c0,0.2,0,0.5,0,0.7c-0.2,2.6-0.5,5.3-0.7,7.8c-0.4,4-0.9,8-1.2,12
			c-0.3,2.9-0.7,5.6-0.9,8.5c-0.1,1.9-0.3,3.9,0.3,5.8c0.4,1.4,1.4,1.9,2.9,1c1.9-1.2,3.1-3.1,3.8-5.3c0.3-0.8,0.2-1.4,0.1-2.3
			C206.6,510.4,206.6,512.7,204.9,513.4z M209.2,509.3c-0.3,1.5,0.1,3.3,0.7,4.8c0.7,1.7,1.7,3.3,3.7,3.5c3.5,0.7,6.2-0.9,8.1-3.7
			c0.4-0.6,1-1.2,0.3-1.8c-0.8-0.7-1.1,0.2-1.5,0.8c-2.5,3.2-6.9,1.4-7.7-1.3c-0.6-1.6-0.5-3.3-0.5-5c0-0.9,0.6-1,1.2-1
			c1.7,0.1,3.2-0.3,4.8-1.2c3.3-2,4.5-4.7,4-8c-0.5-3.1-1.4-3.5-3.9-3.5c-2.9,0.1-4.5,2.1-5.6,4.1
			C210.5,500.7,209,504.7,209.2,509.3z M586.2,509.1c0,0.6-0.1,1.1,0,1.6c0.5,3.9,1.7,7.7,7.2,7c1.7-0.3,5.2-2.8,5.7-4.7
			c0.1-0.4,0.1-0.8-0.2-1.1c-0.5-0.5-1.1,0-1.1,0.2c-0.5,0.9-1.3,1.1-2.1,1.7c-1.7,1.1-4.6,0.6-5.5-1.1c-1.1-1.9-1.1-3.9-1.1-6
			c0-0.9,0.5-1.1,1.2-1.1c1.5,0.1,2.9-0.3,4.3-1.1c3.3-1.8,4.8-4.2,4.6-7.8c-0.2-2.8-1.3-3.8-4-3.8c-2.9,0-4.4,2.1-5.6,4.1
			C587.5,500.7,586,504.7,586.2,509.1z M42.8,505.7c3.3,0.1,5.9-0.7,8.1-3.1c1.7-1.8,2-3.9,1.7-6.3c-0.2-1.3-0.2-2.6-1.6-3.3
			c-1.3-0.6-3.9-0.1-5,0.8c-2.9,2.4-4.3,5.6-5.4,9.1c-1.1,3.9-1.4,7.9,0.1,11.9c0.5,1.2,1.5,2.4,2.7,2.8c3.5,1.1,7.6-0.9,9.2-4.3
			c0.4-0.9,0.1-1.1-0.8-1.3c-0.3,1.1-1.3,1.2-2.1,1.8c-2.5,1.5-5,0.8-6.2-1.6C42.5,510.1,42.8,507.9,42.8,505.7z M94.7,511.9
			c-1.1,0.2-1.4,1.2-2.1,1.8c-1.1,1-3.8,1-5,0.2c-2.6-1.6-2.4-4.3-2.8-6.8c-0.2-1,0.4-1.4,1.2-1.4c2,0.1,3.7-0.5,5.5-1.6
			c2.1-1.3,3.9-4.5,3.6-7c-0.4-3.3-1.8-4.7-4.8-4.2c-1.6,0.3-2.7,1.3-3.7,2.5c-1.8,2.1-3.1,4.6-3.7,7.3c-1.1,3.7-1.3,7.5-0.2,11.3
			c0.8,2.3,2.2,3.9,4.8,3.9c2.2,0,4.1-1,5.7-2.5C94.4,514.5,95.4,513.6,94.7,511.9z M340.9,511.7c-0.6,1.3-1.9,1.6-2.9,2.5
			c-1.1,0.9-4.2,0.1-5-1.1c-1.1-1.8-1.5-3.8-1.4-5.9c0-1.1,0.4-1.7,1.5-1.5c2,0.3,3.7-0.8,5.2-1.8c0.9-0.7,2.1-1.1,2.6-2.4
			c0.6-1.5,0.9-2.9,0.9-4.5c0-1.7-0.4-3.3-2-3.8s-3.2-0.3-4.8,0.9c-2.1,1.5-3.3,3.5-4.2,5.8c-2,5-3.3,10.1-0.9,15.4
			c0.6,1.2,1.5,2.3,2.7,2.5c4,0.8,6.7-0.7,8.9-4.1C342,512.9,341.9,512.2,340.9,511.7z M153.3,506.1c0.7-0.1,1.1-0.5,1.8-0.5
			c4.5,0.2,9.2-3.9,8.5-8.8c-0.2-1.6-0.5-3.2-1.9-3.7c-1.6-0.7-3.2-0.4-4.8,0.8c-1.8,1.3-2.8,3.1-3.8,5c-2.2,4.4-3.1,9-2.3,13.9
			c0.2,1.2,0.9,2.6,1.8,3.6c1.6,1.9,3.8,1.7,5.8,1.1c1.8-0.5,3.4-1.7,4.4-3.4c0.3-0.5,0.9-1.3-0.4-1.6c-0.5,0.5-1.2,0.8-1.8,1.2
			c-1.7,1.3-5.4,0.9-6.1-1.1C153.7,510.6,152.6,508.6,153.3,506.1z M493.2,511.4c-0.6,0.3-0.8,0.8-1.1,1.1c-1.5,1.4-3.3,2.3-5.5,1.8
			c-1.7-0.4-1.8-1.9-2.2-3.1c-1.5-5-0.7-9.8,1.6-14.2c1.3-2.5,3.4-2.7,5.1-0.8c0.5,0.6,0.7,1.3,1.1,2c0.5,1,1.3,1.1,2,0.2
			c1.1-1.6,0.3-4.6-1.7-5.4c-3.2-1.1-6.6,0.1-8.7,3.8c-3,5.4-3.9,11.1-2.3,17c0.4,1.5,1.1,3.3,3,3.6c3.5,0.9,6.4-0.7,8.5-3.3
			C493.4,513.7,494.7,512.7,493.2,511.4z M301.7,496.1c1.2-0.1,2.3,0,1.5,1.6c-0.2,0.4,0,0.9,0,1.3c-0.3,2.7-0.7,5.4-0.9,8
			c-0.2,2.9-0.7,5.6-0.1,8.5c0.4,1.8,1.9,2.8,3.5,2c2.4-1.1,3.8-3.3,4.7-5.7c0.3-0.9-0.3-1-0.9-0.7c-0.4,0.2-0.8,0.5-1,0.9
			c-0.6,1.2-1.6,2-2.8,1.5c-1.3-0.5-1-1.9-1-3c0-0.1,0-0.2,0-0.3c0.4-2,0.5-4,0.7-6.1c0.3-2.6,0.4-5.2,1.1-7.6
			c4.3-0.3,4.3-0.3,3.8-2.3c-1.1-0.3-2.5,0.1-3.6-0.3c0.2-1.8,0.9-3.5,0.4-5.7c-2.4,1.8-2.9,5.1-5.5,6.3
			C301.4,494.8,301.6,495.5,301.7,496.1z M358.4,497.6c-0.4-1.3-0.7-2.7-1.4-3.9c-0.7-1.1-2.3-1.3-3-0.3c-1.4,2.4-2.4,5-1.7,7.9
			c1-0.1,1.1-0.7,1.1-1.3c0-0.6,0.2-1.1,0.3-1.5c0.1-0.8,0.7-0.9,1.1-1c0.6-0.1,0.8,0.4,1,0.9c0.4,1.3,0.8,2.6,0.6,3.9
			c-0.4,3.3-1,6.5-1.1,9.8c-0.1,1.7-0.9,3.4-0.3,5.3c1,0,1.8,0,2.8,0c0.1-1.5,0.3-3.1,0.4-4.5c0.1-1-0.3-2.1,0.1-3
			c0.8-1.8,0.5-3.7,0.9-5.5c0.5-2.3,0.5-4.8,1.6-7c0.3-0.6,0.7-0.7,1.1-0.8c0.6-0.2,0.9,0.3,1.1,0.8c0.3,0.6,0.6,1.1,0.9,1.8
			c0.9-0.9,1.8-4.1,1.5-5c-0.7-1.7-2.8-1.8-4.1-0.2C360,495.1,359.4,496.4,358.4,497.6z M251.3,492.9c-2.1,0.1-3.9,1-5.8,0.8
			c-0.4,0-0.6,0.6-0.7,1c-0.1,0.7,0.5,0.8,0.9,1c0.7,0.3,1.8-0.4,2,0.9c0.1,0.8,0,1.6-0.1,2.4c-0.3,1.9-0.6,3.9-0.9,5.8
			c-0.4,2.7-0.5,5.4-0.9,8c-0.2,1.3,0.1,2.5,0.4,3.6c0.3,1.5,1.9,1.7,2.9,0.7c0.3-0.3,0.7-0.6,0.9-1c1.1-1.8,2.5-3.4,2.3-5.8
			c-2,0.3-1.6,2.5-3.3,3.3C249,506.4,250.6,499.8,251.3,492.9z M346.7,495.9c-0.6,4.1-1.1,8.1-1.5,12.2c-0.3,2.5-1,5.1-0.2,7.7
			c0.3,0.8,0.7,1.5,1.4,1.8c0.5,0.2,1.1-0.1,1.5-0.6c1.2-1.2,2.1-2.7,2.8-4.3c0.3-0.7,1.1-1.8,0-2.5c-1.1,0.9-1.6,2.1-2.8,3.1
			c-0.1-6.9,1.5-13.6,2.3-20.4c-2.1,0.2-4,0.3-5.9,0.7c-0.5,0.1-1,0.8-0.4,1.5C344.6,496,345.6,495.7,346.7,495.9z M604.8,517.6
			c2.8-2.6,3.3-4.4,0.3-7C602.2,512.8,602.3,515.1,604.8,517.6z M351.2,483.9c-0.1-1.1-0.4-2-1-2.9c-0.6-1-1.2-0.7-1.7,0.1
			c-1.1,1.7-0.9,3.5,0,5.3c0.4,0.8,1.1,1,1.5,0.2C350.7,485.8,351.3,484.9,351.2,483.9z M249,484c-0.3,0.9,0.5,1.6,0.8,2.6
			c0.2,0.8,0.9,0.7,1.4,0.1c0.8-0.9,1.3-1.8,1.1-3.1c-0.2-1.1-0.3-2.5-1.5-3.1C250.1,480.2,249,482.3,249,484z"/>
		<path fill="#020101" d="M377,385.8c0.3-10.1,0.7-20.5,0.7-30.9c1.7,0,3.3,0,5.3,0c-0.2,4.2,0.4,8.3-0.3,12.5
			c-0.1,0.4-0.1,0.9,0,1.3c0.2,3.9-0.2,7.7-0.4,11.7c-0.2,4.7-0.6,9.3-1,14c-0.4,5-0.7,9.8-1,14.8c-0.6,7.8-0.7,15.7-0.6,23.5
			c0,2,0.3,4.1,0.3,6.1c-0.9,0-1.4,0.6-1.9,1.1c-2.5-2.1-1.4-4.9-1.2-7.4c0.2-2.4,0.6-4.8,0.9-7.1c0.5-5.2,0.8-10.4,1.1-15.6
			c0.3-4.9-0.1-9.7-0.4-14.4c-0.1-1.4-0.4-2.8-0.4-4.2c0-1-0.3-1.3-1.4-1.6c-3.4-0.7-6.9-0.6-10.4-0.9c-2.8-0.2-5.5,0.1-8.3,0.6
			c-1,0.2-2,0-3.1,0.3c-2.4,0.7-5,0.9-7.4,1.7c-2.9,1.1-5.7,2-8.4,3.5c-0.9,0.5-1.9,0.8-2.9,1.2c-1.2,0.7-0.5,1.9-0.3,2.8
			c1.1,5.3,1,10.6,1,15.9s0.5,10.5,2.6,15.4c0.4,0.9,0.9,1.7,1.2,2.7c-0.4,0.3-0.9,0.1-1.2,0.2c-3.7,0.9-7.6,1-11.2,0.6
			c-3.4-0.4-6.9-0.6-10.3-1.1c-1.1-0.2-2.4-0.1-3.5-0.2c-2.9-0.3-5.7-1-8.7-1.1c-3.2-0.2-6.4-0.4-9.6-0.3c-2.4,0.1-4.9,0.2-7.2,0.8
			c-1.2,0.3-2.5,0.5-3.6,1c-2.2,1.1-4.2-0.2-6.2-0.7c-0.8-0.2-1.8-0.6-2.6-0.7c-4.4-0.5-8.9-0.9-13.4-0.1c-1.3,0.2-2.7,0.1-4,0.3
			c-4,0.6-8.1,1.2-12.1,1.8c-1.6,0.3-3.3,0.4-5,1c-0.1-2.3-0.3-4.4-0.4-6.5c-0.2-4.9-0.6-9.7-0.8-14.5c-0.1-3.6-0.5-7.3-0.6-10.9
			c-0.2-4.5-0.6-9-0.7-13.6c0-1.2-0.3-2.5-0.3-3.6c0.1-1.5-1.1-2.4-1.9-3.2c-1.8-1.6-3.1-3.7-4.7-5.5c-3.3-3.6-6.4-7.6-9.6-11.3
			c-3.1-3.6-5.9-7.4-9.3-10.7c-1.8-1.9-1.1-3.6-1.2-5.5c-0.1-0.9,1.1-1.3,1.6-0.9c1.3,1.1,2.8,2.1,4.1,3.3c2,2,3.4,4.4,5.1,6.6
			c2.1,3,3.9,6.1,5.9,9c2.2,3,4.3,6,7.3,8.5c1.6,1.3,3.4,2.5,5.5,2.7c3,0.3,5.2-1.6,7-3.6c2.1-2.5,3.5-5.5,6-7.6
			c1.5-1.3,3.1-2.6,4.5-3.9c2.6-2.5,5.3-4.9,7.9-7.3c2-1.9,4.1-3.7,6.2-5.5c2.6-2.3,5.2-4.7,7.9-6.9c2.4-1.9,5.1-3.6,7.6-5.4
			c0.4-0.3,0.8-0.4,1.1-0.7c0.8-0.8,1.3-1,2.4,0.2c2.4,2.5,4.7,5.1,7.3,7.5c1.8,1.6,3.6,3.3,5.4,4.9c1.4,1.2,3.2,2.5,4.7,3.6
			c2.9,2.1,5.6,4.3,8.6,6.2c1.7,1.1,3.4,2.3,5.3,3.3c2.8,1.6,5.5,3.3,8.3,5.1c1.5,1.1,1.7,2.8,1.7,4.5c0.1,4.2,0,8.4,0,12.5
			c0,2.4,0.8,4.6,2.2,6.5c0.3,0.4,0.6,0.7,0.9,0.5c2-1.3,4.4-0.9,6.6-1.6c2.7-0.9,5.5-1.1,8.2-1.4c2.7-0.4,5.4-1.1,8.1-1.2
			c3-0.2,6-0.1,8.8-0.8C371.7,386.2,374.4,387.2,377,385.8z M294,426.2c1.4-1.9,3.3-3.6,4.1-6.3c-3,1.2-3.9,3.4-4.4,6
			c-0.3,0.1-0.4,0.3-0.2,0.6C293.7,426.4,293.8,426.3,294,426.2z M283.8,389c-0.1-0.4-0.2-0.7-0.4-1c-3-6-7.6-10.7-13.1-14.4
			c-1.3-0.9-2.8-1.3-4.1-2.3c-3.2-2.2-8-0.9-9.8,2.6c-1.5,3.1-1.8,6.2-1.3,9.6c0.9,5.6,3.3,10.5,6.4,15c2,3,4.5,5.5,7,8.1
			c3.3,3.3,6.6,6.3,10.1,9.3c0.7,0.6,1.3,1.1,1.7,2.1c1.1,2.8,2.3,5.6,4.7,7.6c1.4,1.2,4.1,1.1,5.5-0.4c0.9-1,1.3-2.1,2.1-3.2
			c2.6-3.3,5.4-6.5,8-9.8c3.3-4,6.6-7.9,9.5-12.2c2.8-4.1,5.1-8.5,6.8-13.1c1.1-3.1,2-6.2,2-9.4c0-2.8-1-5.5-1.5-8.1
			c-0.1-0.4-0.4-0.6-0.8-0.8c-3.3-1.5-6.6-2.1-10-1.1c-3.6,1.1-6.6,3.3-9.4,6c-3.3,3.2-5.9,6.8-8.9,10.2
			C287,385.7,285.6,387.5,283.8,389z M244.6,429.2c1.3,0,2.7,0.2,4.2-0.1c-0.2-0.7-0.8-0.8-1.1-1.1c-1.6-1.1-2.4-2.7-1.8-4.4
			c0.6-1.5,0.2-2.9-0.1-4.2c-0.2-0.7-0.5-1.2-0.7-1.9c-1.1-4.3-1.1-8.8-1.2-13.2c-0.1-3.8,0-7.6,0-11.4c0-2.4-0.5-4.7-1.2-7
			c0.3,2.9-0.3,5.7-0.2,8.7c0.2,4.5,0.4,9,0.5,13.5c0.1,1.6,0.2,3.3,0.3,5C243.6,418.4,244.1,423.7,244.6,429.2z M283.4,347.5
			c1.6,0.9,2.7,0.5,3-1.4c0.1-0.4,0.4-0.8,0.6-1.1c1-1.7,3.2-2.7,4.6-1.8c1.6,1.1,3.2,2.3,4.6,3.6c1.1,1.1,2,2.4,3.8,2.5
			c0-0.6,0.1-1.1-0.4-1.5c-1.6-1.5-3.3-3.1-5-4.6c-1.8-1.8-5.5-2.6-7.1-1.3C285.5,343.2,284.2,345.1,283.4,347.5z M334.9,423.1
			c0.3-5.4-0.7-10.5-1.1-15.7c-0.8,0-1.4-0.2-2.1,0.1C331.9,413.9,331.5,420.9,334.9,423.1z M289.6,355.2c-1.6,0.2-2.9,1-4.1,1.3
			c-2.2,0.8-4,2.3-5.5,4.2c-0.4,0.5-1.1,0.9-0.4,1.6c0.6,0.7,1.2,0.7,2,0.4c1.6-0.6,2.8-1.8,4-3
			C287.2,358.5,288.2,356.9,289.6,355.2z M251.7,377.4c0.1,3.3-0.3,6.6,0.7,9.8c0.6,1.8,0.2,3.6,0.9,5.5c0.6,1.4,1.3,1.7,2.7,1.7
			c-1.6-5.5-3.3-11-2.6-16.9C252.6,377.4,252.3,377.4,251.7,377.4z M320.5,369.3c0.6,4.1,1.1,8.3,1.7,12.7c1-3.5,1.5-8.2-0.2-12.8
			C321.6,369.1,321.1,369.1,320.5,369.3z M303.7,424.8c-0.5,0.8-0.9,1.4-1.3,1.8c-0.9,0.7-0.3,1.3,0.3,1.5c1.1,0.3,2.2,1.2,3.4,1
			c1.2-0.3,2.4-0.7,3.5-1.1C307.9,426.7,305.7,426.1,303.7,424.8z M275.3,364.2c-0.8,0-1-1.3-1.5-0.8c-1.2,1.2-3,1.9-4,3.3
			c-0.7,0.8-1.2,1.7-0.6,3C271.5,368.1,273.6,366.5,275.3,364.2z M289.6,377.9c3.1-1.4,5.3-3.8,7.6-6
			C294,371.6,290.7,374.3,289.6,377.9z M314.3,417.3c2.4,0.4,3.9-0.9,4.1-3.2c0-0.4-0.1-1-0.4-1.1s-0.8,0-1.1,0.3
			C315.3,414.4,314.8,415.8,314.3,417.3z M324.3,427.7c-2.7,0-5,0-7.3,0c0.3,2,1.1,2.4,2.9,2.1C321.5,429.5,322.6,428.4,324.3,427.7
			z M253.7,421.4c0.4,2.1,1.1,2.4,4.2,1.7c-0.2-0.6,0.2-1.1-0.3-1.7C256.4,421.4,255,421.4,253.7,421.4z M294,366.3
			c1.3-1.4,1.6-3.2,1.4-5.1C293.1,362.1,292.4,364.6,294,366.3z M321.8,401.1c0.8,0,1.3,0,2,0c0-2.3,0-4.4,0-6.9
			C323,396.7,322.4,398.8,321.8,401.1z M265.3,421.9c0.8-0.7,1.1-1.2,0.8-2c-0.7-1.1-1.3-2-2.9-1.7
			C263.8,419.4,264.5,420.6,265.3,421.9z M272,427.9c1.1-0.2,2.5,0.6,3.5-0.6c-0.8-1.1-1.8-1.1-2.8-1
			C272.2,426.5,271.7,427,272,427.9z M303.9,366.2c1.7,0.5,2.5-0.2,2.5-1.8c-0.9-0.1-1.7-0.2-2.5,0.1
			C303.9,365,303.9,365.5,303.9,366.2z M329.7,371.8c0.8,1.5,0.9,3.2,1.5,5c0-1.9,0-3.4,0-5C330.7,371.8,330.3,371.8,329.7,371.8z
			 M317.6,395.2c1.4-1.2,1.7-2.9,1.6-5.2C318.2,392,317.9,393.6,317.6,395.2z M301.3,359.4c0,0.7,0,1.3,0,1.8c0.5,0,1,0,1.4,0
			C302.6,360.4,302.1,359.9,301.3,359.4z"/>
		<path fill="#020101" d="M455.7,427.4c-0.2-0.7-1-0.5-1.5-0.8c-4.1-1.8-6.5-5-7.4-9.4c-0.4-2-0.6-4,0-6c0.2-0.8-0.3-1.5-0.5-2.2
			c-0.6,0.1-0.7,0.7-0.8,1c-1.8,4.8-4.3,9-8.3,12.5c-2.6,2.3-5.3,4.1-8,6c-2.9,1.9-6,3.3-9.1,4.8c-1.8,1-2.9,0.4-4.4,0
			c-2.3-0.5-4.4-1.5-6.6-2.2c-1.6-0.5-3.3-1.3-4.7-2.4c-1-0.7-2.2-1.1-3.3-1.7c-2.8-1.8-5.1-4-7.5-6.4c-4.3-4.2-6.7-9.5-8.2-15.1
			c-1.7-6-0.9-12,1.4-17.9c1.7-4.5,4-8.6,6.7-12.6c2.2-3.3,4.2-6.6,6.1-10c1-1.6,2.7-2.3,4-3.5c2.3-2.3,5.1-4.2,7.9-5.9
			c1.7-1,3.8-1,5.9-0.7c-1.8,1.3-3.9,1.9-5.7,3.2c-2.8,1.7-5.2,3.8-7.5,6c-2.8,2.6-4.9,5.7-7.2,8.6c-1.8,2.2-3.2,4.8-4.5,7.3
			c-2,3.8-3.6,7.7-5.1,11.8c-1.3,3.6-1.2,7.3-0.3,10.9c1.3,4.9,3,9.6,5.8,13.8c2.3,3.4,5.1,6.5,8.8,8.6c2.7,1.4,5.5,2.7,8.3,3.6
			c3.3,1.1,6.6,0.9,9.9,0.7c2-0.1,3.8-1.1,5.8-1.2c3.4-0.4,5.5-2.8,7.3-5.3c2.4-3.3,4.9-6.7,6.7-10.4c2.1-4.3,3.6-8.8,4.6-13.5
			c0.8-4,0.8-8,0.6-12c-0.2-3.7-1.2-7.2-3.3-10.5c-2.8-4.5-6.7-7.6-10.8-10.7c-1.4-1.1-3.1-1.3-4.7-1.8c-1.4-0.5-2.9-0.7-4.3-0.8
			c-3.3-0.3-5.9,0.4-9.4,2.9c-1.5-2-1.4-1.9,0.7-3.3c2.5-1.7,5.2-2.5,8.1-2.1c2.1,0.3,4.2,0.8,6.2,1.7c1.4,0.8,3.1,1.2,4.6,2
			c4,2.2,7.7,4.8,10.3,8.5c0.6,0.9,1.6,1.1,2.1,1.9c3.4-5.2,0.8-10.9,1.6-16.4c2.2,0.3,4.1,1.6,6.2,2.2c0.9,0.2,0.6,1.1,0.5,1.4
			c-0.6,3.8-1.4,7.6-1.8,11.4c-0.4,3.5-0.8,7.2-1.1,10.7c-0.3,3.2-0.5,6.3-0.5,9.5c0,6.1,0.5,12.2,2.2,18.2
			c1.1,3.7,2.5,7.4,4.9,10.4c0.4,0.4,0.1,1.1,0.6,1.3c3.1-2.7,5.2-5.9,7.5-9.2c2.5-3.6,4.8-7.5,6.9-11.4c3.3-6.2,6.1-12.6,9.1-19
			c2.5-5.5,5-11.1,7.8-16.5c1.4-2.9,3.1-5.6,4.5-8.5c0.3-0.6,0.2-1.1,0.2-1.5c0-3.5,0-7.1,0-10.9c1,1.1,2.1,1.1,3.2,1.5
			c0.6,0.2,0.7,0.4,0.6,1.1c-0.9,4.8-1.7,9.6-2.2,14.4c-0.4,3.7-0.2,7.5-0.2,11.2c0,1.8,0.5,3.5,0.8,5.5c1.6-3.5,3.3-7,5.5-10.1
			c2.1-3.2,4.6-6,7.3-8.8c2.9-2.9,5.9-5.4,9.6-7.3c2.8-1.4,5.6-2.4,9.2-2.2c-2.8,1-5.2,2.1-7.4,3.4c-4,2.4-7.8,5.1-10.9,8.8
			c-2.8,3.3-5.1,6.9-6.4,11.1c-0.3,0.9-0.7,1.7-1,2.7c-0.4,1.3,0.2,2.5,1.1,3.3c2.9,2.5,6.2,3.8,10.1,4.5s7.9,0.3,11.8,1.2
			c2.7,0.7,5.5,1.5,7.6,3.7c0.9,0.9,2.5,1.5,3.8,2.2c3.2,1.5,6.5,3,8.3,6.5c1.1,2.1,1.1,3.9,0,5.9c-2.3,4.2-5,8-8.5,11.4
			c-2.9,2.7-6,5-9.1,7.5c-3.6,2.9-7.5,5.5-10.7,8.9c-2.9,3-5.4,6.1-7.6,9.8c-0.8-0.3-1.1-0.9-1.1-1.7c-0.1-2.6,0.7-4.4,2.7-6.2
			c3.2-2.8,6.1-5.8,9.2-8.8c2.3-2.3,4.7-4.5,7.1-6.6c2.1-1.9,3.9-4,6-5.9c1.6-1.4,3.1-3.1,4.6-4.6c0.5-0.5,0.5-0.6,0.3-1.1
			c-1.6-4-4.1-7.4-7.7-9.8c-2-1.3-4.3-2-6.7-2.7c-3-0.9-6-1-9-1.6c-3.2-0.8-6.5-1.3-9.5-2.9c-3.1-1.6-6.1-3.5-7.8-7
			c-1.1,3.2-1.9,6.1-2.2,9.3c-0.6,5.4-1.1,10.7-0.7,16c0.6,7,0,13.9,0.4,21.3c-2-1.9-4.1-1.7-6.4-1.7c1-4,0.1-7.9,0.8-11.9
			c0.4-2,0.2-4.2,0.4-6.3c0.4-4.7,0.8-9.4,1.3-14.1c0.4-3.2,0.4-6.4,0.7-9.7c0.6-5.7,1.1-11.6,1-17.5c-1.1,0.3-1.3,1.5-1.7,2.2
			c-2.8,5.3-5.5,10.5-8.2,15.9c-3.9,7.7-7.6,15.6-12,23c-2.8,4.6-5.9,8.9-9.3,13C458.9,424.7,457.7,426.3,455.7,427.4z"/>
		<path fill="#020101" d="M22.2,443.1c0-8,0-16.1,0-24c0-6.5,0-13.1,0-19.6c0-4-0.3-8.1-0.4-12.1c-0.1-3.9-0.5-7.8-0.7-11.8
			c-0.2-4.2-0.6-8.3-1-12.5c-0.4-4.6-0.9-9.2-1.3-13.7c0-0.1-0.1-0.2-0.2-0.4c0.3,0,0.5,0,0.8-0.1c2.1-0.6,3,0.9,3.7,2.3
			c1.9,4,4.4,7.8,6.5,11.9c2.4,4.5,4.9,8.9,7.3,13.3c2.4,4.4,5,8.7,7.4,13.1c1,1.7,2,3.3,2.8,5.2c0.3,0.7,0.9,1.5,1.6,1.2
			c0.9-0.4,1.9,0,2.7-1.2c1-1.6,2.1-3.3,3.3-4.9c2.8-3.9,5.5-7.8,8.1-11.8c3.4-5,6.9-9.9,10.3-14.9c2.2-3.2,4.4-6.3,6.5-9.5
			c2.3-3.3,4.7-6.7,7-10c1.2-1.8,2.7-3.4,3.6-5.6c1.8,2.9,4,5.1,7.1,5.9c2.6,0.8,5.2,0.5,7.7,0c3.8-0.8,7.7-1.4,11.6-1.1
			c1.4,0.1,2.7,0.7,3.9,1.4c-1.4,0.6-3.2,0.1-4.5,0.6c-3.3,1.1-6.8,0.5-10.1,1.2c-1.4,0.3-2.9,0.2-4.3,0.3c-2.2,0-4.3,0.7-6.6,0.9
			c-0.6,4.4-1.4,8.9-2.1,13.4c-0.5,3.2-0.8,6.3-0.9,9.4c-0.1,4.3,0.9,8.4,2.6,12.3c0.8,1.7,2.4,0.5,2.9,0.3c1.2-0.8,2.6-0.5,3.9-0.8
			c1.5-0.4,3.2-0.3,4.5-0.8c2.8-1.1,5.5-0.1,8.2-0.5c-1,1.3-2.4,1-3.5,1.1c-1.5,0.3-3.3,0.1-4.8,0.5c-2.6,0.7-5.4,0.5-7.7,1.5
			c-1.6,0.8-3.3,1.3-4.9,3.2c0.2,1.7,0.4,3.9,0.7,6.1c0,0.2,0.1,0.5,0,0.7c-0.2,3.7,0.3,7.4,0.4,11c0.1,5.6,0.7,11.2,1.9,16.6
			c0.3,1.1,0.7,2.3,1.1,3.4c0.6,1.6,1.4,2.5,3.4,2.4c2.5-0.1,5.1,0,7.3-1c2.2-1,4.6-1.2,6.7-2.3c1.2-0.6,3.2-0.8,4.8-0.4
			c-0.1,0.4-0.1,0.9-0.8,1c-1.8,0.3-3.7,0.5-5.5,1c-2.5,0.8-5.2,0.9-7.6,1.7c-2.4,0.8-4.8,0.9-7.1,1.6c-1.3,0.4-2.6,1-4.1,0.9
			c-0.8-4.2-1.3-8.5-1.7-12.7c-0.5-4.8-0.8-9.7-1-14.4c0-5-0.2-9.9-0.5-14.8c-0.3-4.9-0.7-9.8-1.1-14.7c-0.5-4.6-1.2-9-2.1-13.5
			c-0.4-2.1-1.1-4.1-1.7-6.5c-1.8,1.7-3.4,3.3-5.1,4.7c-2.5,2.2-4.5,4.9-6.8,7.4c-1.9,1.9-3.3,4.4-4.9,6.6c-2,2.9-4.1,5.7-5.9,8.7
			c-2.5,4.2-5,8.4-7.2,12.8c-1.4,2.8-2.9,5.6-4.4,8.4c-3.3,0.1-4.1-0.5-5.7-3.5s-3.5-6-5.3-9.1c-1.6-3-3.3-5.9-4.7-9
			c-1.5-3.2-3.4-6.2-5.1-9.3c-1.7-3.2-3.6-6.1-5.7-9c-0.5-0.7-0.5-1.7-1.7-2.1c0,3.6,0.2,7.3,0.6,10.9c0,0.2,0,0.5,0,0.7
			c0.1,3.1,0.2,6,0.4,9.1c0.4,5.5,0.8,10.8,1.1,16.3c0.2,3,0.5,5.8,0.7,8.8c0.3,4.7,1,9.4,1.2,14.1c0.2,2.8,0.4,5.5,0.7,8.3
			c0.4,4.3,0.7,8.6,1.3,12.9c0.3,1.9-0.6,3.1-2.7,3.2c-0.8,0.1-1.6,0.1-2.4-0.1C23.8,443.1,23,443.4,22.2,443.1z"/>
		<path fill="#020101" d="M127,395.6c-1.1,0-1.9,0-2.9,0c-0.1-1.5,0.7-2.5,1.7-3.3c1-0.8,1.9-1.5,2.8-2.3c1.6-1.3,1.1-3.3,1.2-5
			c0.3-3.3,0.4-6.7,0.5-10c0.2-2.9,0.1-5.7,0.2-8.6c0.5-7.5,0.8-15,2.3-22.5c0.5-2.2,2.7-3.2,4.6-1.8c0.4,0.3,0.7,0.3,1.1,0.2
			c1.9-0.1,3.8,0.1,5.5,0.8c3.1,1.1,6.2,1.9,9,3.7c1.1,0.8,2.6,1.1,3.8,1.8c1.4,0.8,2.9,1.6,4.3,2.3c1.7,0.8,3.3,1.7,4.9,2.7
			l0.1,0.1c2.7,1.1,2.9,1.7,1.2,4.3c-2,3.3-4.5,6-7.4,8.4c-1.5,1.2-2.8,3-4.1,4.4c-0.8,0.8-0.3,2-0.1,3.1c1.1,5.5,3.3,10.5,6.5,15.1
			c2.2,3.2,4.6,6.1,7.1,9c3.2,3.6,6.2,7.4,8.8,11.5c1.3,2.2,2.7,4.6,3.6,7.1c0.5,1.1,0.5,2-1.1,2.5c-9.9-13.8-20-27.6-30.1-41.5
			c-1.2,1.1-2.6,2.3-3.9,3.4c-3.7,3.2-7.6,6-11.1,9.4c-0.6,0.6-1.3,1.2-2,1.6c-2.4,1.1-2.1,3.3-2.3,5.2c-0.7,7.1-0.2,14.2-0.4,21.3
			c-0.1,4.1-0.3,8.2-1.1,12.4c-0.6-1.2-0.8-2.4-0.9-3.6c-0.6-6.4-0.3-12.9-0.3-19.3c0-3.4-0.5-6.8-1.1-10.1
			C127.5,397,126.9,396.5,127,395.6z M133.7,384.8c0.5-1.4,1.7-1.7,2.4-2.4c1.9-2.1,4.3-3.7,6.7-5.2c3.3-2,6.6-4.4,9.4-7.1
			c3.2-3,5.5-6.8,6.5-11.1c0.2-0.6,0.6-1.3,0.2-1.9c-2.3-3.3-5.2-6-8.6-8c-2.4-1.4-5.2-1.8-7.7-2.6c-2.3-0.7-4.8-0.7-7.2-0.4
			C133.3,358.8,131.4,371.5,133.7,384.8z"/>
		<path fill="#020101" d="M588.1,413.9c0,0.8,0,1.2,0,1.7c-3.7,1.1-7.6,1.4-11.4,2c-3.4,0.5-6.8,0.5-10.2,0.9
			c-2.5,0.3-5.1,0.1-7.5,0.8c-1.9,0.5-3.8,0.7-5.6,1.3c-1.5,0.6-3.1,1.2-4.6,1.7c-0.7-0.4-0.4-1-0.4-1.5c0-4.4-0.2-8.8,0-13.2
			c0.2-5.7,0.7-11.5,1-17.2c0.2-2.9,0.4-5.6,0.7-8.5c0.8-8,0.6-16,0.6-24c0-1.2,0.1-2.6-0.4-4c2.3-0.1,4.5,0.1,6.7-0.4
			c3.2-0.7,6.4-1.1,9.4-2.6c0.6-0.3,1.3-0.3,2-0.5c3-1,5.8-1.9,8.8-3c0.7-0.3,1.4-0.3,2-0.3c1.5,0,2.8-1.2,4.5-0.8
			c0,1.7,0,3.5,0,5.5c-1.6,0.2-3.4,0.4-5.1,0.8c-3.7,0.9-7.5,1.8-11.1,3c-2.4,0.8-4.9,1.8-7.1,3c-2.3,1.2-4.5,2.8-6.5,4.5
			c-0.4,0.3-0.2,0.7-0.2,1.1c-0.2,4.7,0.4,9.4,0.4,14.2c0,1.4,0.2,3,0.3,4.5c1,0.6,1.9,0.5,3,0.6c3.6,0.1,7.4,0,11-0.4
			c2.1-0.2,4.2-0.2,6.3-0.3c0.9,0,1.7,0,2.7,0.7c-2.9,0-5.5,0.1-8.1,0c-1.9-0.1-3.8,0-5.6,0.4c-3.3,0.8-6.4,2.2-8.8,4.7
			c-0.4,0.4-0.4,1-0.4,1.5c0,3.7-0.2,7.6,0.1,11.3c0.4,5.2,0.9,10.2,2.1,15.3c0.7,2.5,0.6,2.3,3.3,1.9c3.2-0.6,6.4-1,9.6-1.4
			c2-0.3,4-0.6,6-1.1c1.2-0.3,2.4-0.1,3.6-0.5c2.5-0.7,5.1-1,7.6-1.3C587,413.8,587.5,413.9,588.1,413.9z"/>
		<path fill="#D02C42" d="M15.8,510.9c1.9-3.6,3.3-7.6,5-11.4c0.7-1.4-0.1-3.1-0.4-4.5c-0.7-4.1-1.6-8.2-2.5-12.3
			c-0.2-1.2-0.9-2-2-2.4c-1-0.3-1.3-0.8-1.2-1.7c0.2-1.1,1.1-0.9,1.7-0.7c2.2,0.7,4.4-0.1,6.6,0c0.3,0.9,0.3,1.4-0.5,1.9
			c-1.4,0.9-1.5,2.2-1.3,3.6c0.6,3.2,1.2,6.2,1.9,9.8c1.4-3.8,3.2-7.1,3.5-10.9c0.1-1.1-0.2-1.8-1.3-2c-0.9-0.2-1-0.9-1-1.6
			c0.1-0.7,0.6-0.9,1.1-0.8c2.2,0.6,4.4,0.2,6.6-0.1c0.3,1,0.3,1.7-0.5,2c-2.4,1-2.4,3.3-3.3,5.2c-1.3,3.1-2.3,6.3-3.8,9.3
			c-1.1,1.9-0.5,3.7-0.1,5.5c0.8,3.7,1.5,7.5,2.4,11.4c1.5-2.2,2.2-4.6,3.2-6.8c1.6-3.8,3.1-7.6,4.5-11.6c1.1-3.1,2.1-6.1,3-9.3
			c0.6-1.9,0.1-2.8-1.7-3.4c-0.6-0.2-0.9-0.8-0.8-1.4c0.1-0.6,0.4-0.8,1-0.9c1.1-0.2,2.1,0.5,3.2,0.3c0.9-0.1,1.8,0.1,2.7-0.3
			c0.5-0.2,1.1-0.2,1.4,0.4c0.4,0.7-0.1,1.6-0.4,1.7c-2.8,0.8-2.9,3.3-3.7,5.4c-1.2,2.9-2.1,5.8-3.3,8.8c-2,5.5-4,11-6.2,16.4
			c-1,2.3-1.7,4.7-3.1,6.8c-0.3,0.5-0.7,0.8-1.3,1.1c-1.6-5.3-2.2-10.7-3.6-16.2c-2.8,5.4-4.2,11.1-7.3,16.4
			c-1.4-1.5-1.4-3.3-1.6-4.8c-1.2-7.2-2.5-14.4-3.9-21.6c-0.6-3.2-1.1-6.4-1.7-9.7c-0.2-1.1-0.3-2-1.3-2.6c-0.3-0.2-0.8-0.7-0.4-1.3
			c0.3-0.6,0.7-1.1,1.3-0.9c1.5,0.4,3,0.4,4.5,0c0.6-0.1,1.1-0.2,1.5,0.6c0.4,0.9-0.5,1.4-0.8,1.5c-1.7,0.6-1.5,1.9-1.3,3.2
			c1.1,6.3,2.3,12.6,3.4,18.9C14.6,505.1,14.9,508.1,15.8,510.9z"/>
		<path fill="#020101" d="M208.2,346.6c-1.4,1.1-3,1.3-4.3,1.9c-2.3,1.1-4.6,2-6.8,3.3c-5,2.7-9.5,6-13.4,10.1
			c-2.2,2.4-4.1,4.9-5.8,7.6c-1.5,2.5-2.7,5-2,8.3c0.8,4,1.7,7.9,3.5,11.7c2.1,4.3,4.8,8.2,7.9,11.9c3.3,3.8,7.1,7.3,10.8,10.5
			c2.2,1.9,4.8,3.7,7.2,5.5c1.1,0.8,2.2,1.2,3.1,2.3c0.2,0.3,0.6,0.3,0.9,0.1c1.1-1,2.5-0.8,3.9-1c0.8,3.4-1.6,5.9-2.6,8.6
			c-2.5-2.2-4.5-5-7-7.5c-2.5-2.4-5-4.7-7.6-7c-2.1-1.8-4.1-3.7-6.2-5.5c-2.4-1.9-4.4-4.2-6.5-6.4s-3.9-4.6-5.5-7.1
			c-2.9-4.7-5.6-9.6-5.4-15.3c0.2-4.5,1.5-8.7,4.3-12.3c2.8-3.7,6-7.1,9.7-10.1c1.3-1.1,2.6-2.3,3.6-3.8c0.5-0.8,1.4-1.1,2.2-1.5
			c3.2-1.1,5.9-3.3,9.1-4.5c1.7-0.7,3.5-0.8,5.4-0.3C207,346.3,207.5,346.4,208.2,346.6z"/>
		<path fill="#D02C42" d="M563.6,497.9c0.9-1.8,2.2-3.2,3.6-4.4c1.1-1,2.6-0.9,3.8-0.5c1.1,0.3,1.5,1.4,1.7,2.5
			c0.1,0.6,0.4,1.1,0.5,1.8c0.8-1.6,2-2.9,3.3-4c2-1.6,5-0.2,5.5,2.3c0.8,4.3,0.1,8.6-0.3,12.9c-0.1,1.7,0,3.3,0,5.1
			c1.9,0.4,1.4-2.8,3.5-2.4c0,2.1-1.1,3.5-2.4,5c-0.1,0.1-0.3,0.1-0.4,0.2c-0.7,0.8-1.3,1.6-2.5,1c-1.1-0.6-1.2-1.7-1.2-2.9
			c-0.1-5.2,0.8-10.3,0.7-15.6c0-1.2,0.1-2.7-1.4-3.1c-1.6-0.4-2.3,0.9-3,2.1c-1.5,2.7-1.6,5.7-2.1,8.6c-0.6,3.4-0.8,7-1.1,10.6
			c-0.9,0.2-1.8,0.1-2.7,0.1c-0.5-2.1,0.1-4,0.3-6c0.2-2.3,0.6-4.6,0.9-6.9c0.2-2.3,0.7-4.6,0.1-6.9c-0.3-1.1-0.9-1.5-1.7-1.6
			c-1-0.2-2,0.3-2.5,1.1c-1.3,2.8-2.1,5.8-2.4,8.9c-0.3,3.3-0.9,6.7-1.1,10.1c-0.1,1.9-1.6,1.1-2.8,1.2c-0.7-1.6-0.3-3.3-0.1-4.8
			c0.7-4.2,0.9-8.4,1.5-12.6c0.2-1.1-0.3-2.2-0.9-3.3c-0.7,0.9-1.3,1.4-1.6,2.4c-0.1,0.4-0.3,0.8-0.8,0.6c-0.4-0.1-0.6-0.4-0.7-0.9
			c-0.2-1.3,1.5-5.1,2.8-5.7c1.4-0.8,2.3-0.3,2.9,1.2C563.5,495.5,563.2,496.7,563.6,497.9z"/>
		<path fill="#D02C42" d="M389.5,493.3c0.9,0,1.5,0,2.3,0c0.3,1.1,0.4,2-0.2,3c-0.7,1.1-0.1,2.3-0.2,3.4c-0.3,3.5-0.7,7.2-0.4,10.7
			c0.1,1.2-0.2,3,1.2,3.3c1.5,0.4,2.3-1.3,2.9-2.4c2.1-4,3-8.3,2.7-12.8c-0.1-1.3-0.9-2.6-0.7-3.9c0.1-0.7,0-1.4,1.1-1.5
			c1-0.1,1.5,0.4,1.6,1.3c0.5,5.3-0.2,10.4-2.2,15.4c-1.1,2.5-2.5,4.7-4.2,6.8c-0.9,1.1-1.6,1.6-3.1,1.2c-1.4-0.5-1.3-1.8-1.6-2.8
			c-0.6-1.9-0.3-4-0.4-6.1c-1.3,3.2-2.6,6.1-5.2,8.3c-1.1,0.9-2.4,0.9-3-0.3c-0.6-1.1-1-2.3-0.9-3.5c0-1.1-0.3-2.1-0.4-3.3
			c0-0.5-0.2-1-0.8-1.1c-2.2-0.5-2.3-2.4-2.5-4c-0.3-3.3,0.2-6.4,1.6-9.4c0.6-1.1,1.2-2.6,2.9-2.7c1.3-0.1,2.2,0.6,2.3,2.3
			c0.2,3.6-0.2,7.4-0.5,11c-0.3,2.7-0.3,5.4,0.6,8c2.2-1.1,3.1-3.2,3.7-5.1c1.4-3.8,2.2-7.7,2.4-11.9
			C388.8,495.9,389.2,494.7,389.5,493.3z M379.5,497.7c-2.3,1.6-3.1,6-2.1,8.6c0.2,0.6,0.8,0.8,1.1,0.7c0.4,0,0.8-0.5,0.8-1
			C379.1,503.4,379.9,500.6,379.5,497.7z"/>
		<path fill="#D02C42" d="M139.5,485.4c0.5,2.8-0.5,5.2-0.2,7.6c1.1,0,2.1,0,3.2-0.2c2.6-0.4,5.5,2.3,6.1,5.4
			c1.1,4.5,0.3,8.7-1.4,12.7c-1.1,2.7-3,4.9-5.5,6.4c-1.1,0.7-2.4,0.5-3.5,0.4c-1.1-0.1-1.3,0.5-1.3,1.1c0,1.7-0.5,3.3-0.4,5
			c0.1,2.2,0.6,2.9,2.8,3.1c0.4,0.4,0.2,0.9,0.2,1.3c-0.1,0.1-0.2,0.2-0.3,0.2c-2.2,0-4.5,0-6.7,0c-0.5,0-0.9,0-1.1-0.5
			c-0.1-0.3-0.1-0.8,0.3-0.9c2.9-1.5,2-4.4,2.3-6.7c0.7-5.7,1.1-11.5,1.6-17.2c0.2-2.3,0.3-4.6,0.5-7c-0.9,0.1-1.4,0.7-2,1.2
			c-0.9-1.2-0.8-2.1,0.8-2.6c1.2-0.4,1.9-1.2,1.8-2.8s0-3.1,0.4-4.5C137,486.3,138.5,486.1,139.5,485.4z M145.9,503.8
			c0.1-3.5-0.5-6-2.6-8.1c-1.1-1.1-3.9-1.2-4.3,0c-0.5,1.6-0.9,3.3-0.9,5c-0.1,1.7-0.1,3.4-0.2,5.3c-0.2,3-0.6,5.8-0.9,8.8
			c-0.1,1.1,0.4,1.3,1.4,1.4c1.7,0.2,2.8-0.8,3.8-1.9C145.2,510.9,145.6,507,145.9,503.8z"/>
		<path fill="#D02C42" d="M70.1,496.2c1.6-1.5,2.6-3.3,4.7-3.3c2-0.1,3.2,0.6,3.5,2.5c0.6,2.9,0.5,5.7,0.3,8.7
			c-0.2,3.1-0.8,6.2-0.4,9.4c1.1,0.1,1.6-0.4,1.8-1.2c0.2-0.7,0.6-1.1,1.1-0.8c0.6,0.3,0.6,0.8,0.3,1.3c-0.8,1.5-1.5,3.1-3.1,4.2
			c-1.3,1-2.5,0.7-3-0.9c-0.7-2.4-0.4-4.8-0.2-7.3c0.2-3.3,0.7-6.8,0.5-10.1c-0.1-1.1-0.2-2.4-1.6-2.6c-1.2-0.1-2.1,0.7-2.7,1.8
			c-1.4,3.1-2,6.4-2.5,9.8c-0.4,3.2-0.8,6.3-1.1,9.5c-0.9,0.3-1.7,0.1-2.7,0.1c-0.6-1.9,0-3.7,0.2-5.5c0.3-3.3,0.8-6.6,1.2-9.8
			c0.7-5.1,1-10.2,1.6-15.4c0.3-2.2,0.3-4.4,0.7-6.6c0.2-1.1-0.9-1.2-1.5-1.6c-0.4-0.2-0.9,0.1-1.5-0.5c1.8-1.6,3.9-1.7,6.4-1.5
			C71.4,482.8,70.8,489.3,70.1,496.2z"/>
		<path fill="#D02C42" d="M284.8,493.5c0.3-2.9,0.7-5.5,0.8-8.2c0.1-1.4,0.3-2.9,0.4-4.3c0.1-2.5,0-2.6-2.4-2.9
			c0.1-1.4,2.7-2.4,5.6-2c0.4,2.2-0.2,4.4-0.4,6.5c-0.2,1.2-0.2,2.6-0.3,3.8c-0.2,2.1-1,4.2-0.9,6.4c0.1,5-0.7,9.9-1.2,14.9
			c-0.2,1.5-0.1,3.2-0.1,4.7c0,0.6,0.2,1.1,0.8,1.2c0.6,0.1,0.8-0.5,1-0.9c0.4-0.8,0.6-1.6,1.5-2c0.8,0.3,0.8,1,0.6,1.5
			c-0.7,1.5-1,3.3-2.6,4.4c-0.7,0.5-1.3,1.1-2.2,0.8c-1-0.4-1.5-1.3-1.6-2.4c-0.1-0.7,0-1.3,0-2.3c-1.2,1.3-1.7,2.9-3.1,3.9
			c-1.8,1.4-5.5,1.6-6.7-1.1c-1.1-2.5-1.1-5-0.8-7.6c0.4-3.6,1.5-6.9,3-10.2c0.8-1.6,1.8-3.1,3.2-4
			C280.9,492.5,282.9,492.5,284.8,493.5z M284.7,497.7c-0.3-1.1,0.1-2.3-1.1-2.8c-1.2-0.6-2.3-0.1-3.3,0.8c-1.2,1.1-1.8,2.4-2.4,3.8
			c-1.5,3.8-2.6,7.7-2,12c0.4,2.6,2.8,4.2,4.4,2.9c1.1-0.9,2-1.9,2.5-3.3C284.2,506.6,283.8,502,284.7,497.7z"/>
		<path fill="#D02C42" d="M112.2,528.4c-2.8,0-5.4,0-7.9,0c-0.3-0.8-0.2-1.2,0.6-1.6c1.1-0.6,1.4-1.6,1.5-2.8
			c0.4-4.3,0.7-8.6,1.1-12.9c0.4-4,0.9-8.1,1.2-12.1c0.1-0.9,0-1.7,0-2.7c-0.4,0.2-0.6,0.3-0.9,0.4c-0.6,0.1-1.1,1.1-1.6,0.1
			c-0.4-0.8,0-1.6,0.9-1.8c2.3-0.5,2.4-2.1,2.3-3.9c0-1.1,0.1-2.4,0.4-3.5c0.3-1.1,1.4-1.7,2.2-1.6c1,0.1,0.8,1.3,0.7,2.2
			c-0.2,1.7-0.4,3.3-0.7,5c2.7-0.1,5.3-0.8,7.5,1.2c1.5,1.4,2.1,3.3,2.3,5.2c0.8,5.8-0.6,11.2-4.4,15.8c-1.6,2-3.8,2.9-6.4,2.6
			c-1-0.1-1.1,0.2-1.2,1c-0.2,2-0.3,4.1-0.4,6.1c0,1.2,0.6,1.8,1.6,1.9C112.1,526.8,112.5,527.3,112.2,528.4z M118.9,503.4
			c-0.1-3.2-0.5-6-3-8c-1.3-1.1-4.2-0.8-4.4,0.5c-0.2,2.6-0.5,5.3-0.8,7.8c-0.3,3.2-0.4,6.3-0.8,9.6c-0.1,0.9-0.5,2.1,0.4,2.6
			c0.9,0.6,2.1,0.4,3.1-0.1c0.7-0.3,1.1-0.9,1.6-1.4C117.9,511.1,118.5,507.1,118.9,503.4z"/>
		<path fill="#D02C42" d="M314.2,517.3c-0.7,0-1.1,0-1.6,0c-0.9,0.1-1.2-0.6-1.1-1.1c0.3-2.9,0.7-5.7,1.1-8.6
			c0.4-3.3,0.8-6.6,1.1-9.9c0.5-4.2,0.9-8.4,1.2-12.7c0.1-1.2,0.1-2.6,0.3-3.8c0.3-2.3-0.1-2.7-2.4-3.1c0.1-1.6,1.3-2,5.8-1.7
			c-0.7,6.6-1.3,13.3-2,19.8c0.9-0.8,1.7-1.4,2.5-2.3c1.8-1.8,4.7-1.3,5.5,1.1c0.7,2.2,1.1,4.4,0.7,6.8c-0.4,2,0,4.1-0.4,6.1
			c-0.2,1-0.1,1.9-0.3,2.9c-0.2,1-0.2,2,0.6,2.9c1.3-0.2,1.1-2.3,2.9-2.1c0.3,1.9-1,3.2-1.8,4.5c-0.2,0.3-0.7,0.4-0.9,0.7
			c-0.5,0.8-1.2,1.1-2,0.9c-0.9-0.3-1.4-1.1-1.4-1.9c0.1-3.2,0-6.3,0.2-9.4c0.2-2.9,1-5.7-0.1-8.6c-0.3-0.7-0.4-1.3-1.2-1.4
			c-0.9-0.1-1.5,0.2-2.1,1c-1.6,2.2-2.1,4.7-2.6,7.3c-0.8,3.7-1.1,7.5-1.3,11.2C314.6,516.1,314.4,516.7,314.2,517.3z"/>
		<path fill="#D02C42" d="M537,513.6c0.6-0.3,1-0.7,1.2-1.2c0.3-0.6,0.7-1,1.5-0.9c0.2,1.8-1,3.2-1.8,4.5c-0.2,0.3-0.7,0.4-0.9,0.7
			c-0.5,0.9-1.2,1.1-2,0.9c-0.9-0.3-1.4-1.1-1.4-2.1c0-4.9-0.1-9.8,0.6-14.5c0.2-1.4-0.3-2.8-0.8-4c-0.5-1.1-2.2-1-3.1,0.2
			c-1.3,1.7-1.8,3.7-2.3,5.7c-0.9,4.2-1.5,8.5-1.6,12.9c0,0.6-0.3,1.1-0.5,1.6c-2.7,0.2-2.8,0.2-2.5-2.4c0.7-5.5,1.3-11,1.9-16.4
			c0.4-4.1,0.7-8.1,1.1-12.2c0.2-1.7,0.5-3.4,0.6-5.1c0.2-2.3-0.3-2.8-2.5-3.1c0.1-1.7,0.8-2,5.8-1.8c-0.7,6.7-1.3,13.3-2.1,20
			c1.1-0.3,1.2-1.1,1.7-1.7c1.2-1.7,3-2,4.7-1.5c1.8,0.6,1.9,2.5,2.1,4c0.6,4.6,0,9.1-0.6,13.7C536.2,511.6,536,512.8,537,513.6z"/>
		<path fill="#D02C42" d="M189.2,526.9c0,0.6,0,1,0,1.5c-2.4,0-4.9,0.1-7.3,0c-0.9,0-1.2-1-0.6-1.3c2.5-1.2,2.1-3.6,2.2-5.5
			c0.2-4.4,0.9-8.7,1.1-13c0.3-4.1,0.9-8.1,1-12.2c-0.9,0.2-1.5,0.7-2.1,1.2c-0.5-2.2-0.5-2.3,2.7-3.5c-0.3-1.9,0.3-3.8,0.3-5.7
			c0-1.2,1.3-2.3,2.8-2.4c0.5,2.4-0.7,4.8,0,7.4c0.9-0.3,1.8-0.1,2.8-0.3c3.2-0.5,6.3,2.8,6.5,5.9c0.4,4.7,0.2,9.4-2.3,13.6
			c-1.9,3.2-4.3,5.8-8.4,5.5c-1.1-0.1-1.3,0.4-1.3,1.1c0,1.7-0.5,3.4-0.4,5.2C186.5,526.1,187,526.7,189.2,526.9z M187.3,516
			c3.1,0.2,4.9-1.1,6.4-3.7c1.1-2,1.7-4.3,2-6.5c0.5-3.6,0.6-7.4-2.4-10.2c-1.1-1.1-2.5-1-3.8-0.6c-1.1,0.3-1.1,1.2-1.1,2.1
			c0.2,1.1,0,2.2-0.1,3.3c-0.3,3.3-0.7,6.6-0.9,9.9C187.3,512.2,186.7,514.1,187.3,516z"/>
		<path fill="#D02C42" d="M447.5,478c0.4-1.6,2.1-2.2,5.9-1.7c-0.8,6.9-1.4,13.8-2.2,20.8c0.6-0.7,1.2-1.3,1.8-2.1
			c1.4-1.9,3.9-2.8,5.8-2.1c2.3,0.9,3.2,3,3.3,5.2c0.5,5.7-0.8,11.2-4.2,16c-1.9,2.6-4.3,4.1-7.7,3.6c-1.9-0.3-3.3-1.6-3.3-3.6
			c-0.2-3.8,0.4-7.7,0.9-11.4c0.3-2.4,0.5-4.7,0.7-7.1c0.4-3.6,0.9-7.3,1.2-10.9c0.1-1.2,0.2-2.6,0.4-3.8
			C450.4,478.7,450,478.4,447.5,478z M459.3,502.3c0.2-1.8-0.1-3.5-1.2-5c-1.1-1.3-2.8-1.3-3.7-0.5c-2.3,2-3.6,4.7-4,7.6
			c-0.4,3.1-1,6.1-0.8,9.3c0,0.5,0.1,1,0.5,1.4c1.1,1.4,3.5,1.2,5.4-1.1C458,510.7,459.1,506.6,459.3,502.3z"/>
		<path fill="#D02C42" d="M500.8,504.7c3.7-2.6,6.2-5.9,7.1-10.3c0.3-1.2,0.9-1.6,2-1.5c1.3,0.1,1,1.1,1.1,1.8
			c0.3,1.7-0.8,2.9-1.5,4.1c-1,1.3-2.2,2.6-3.4,3.6c-1.1,1-0.3,2,0,2.8c0.9,2.5,1.7,5,3.1,7.3c0.5,0.9,1.1,1,1.5,0.2
			c0.4-0.8,1.1-1.4,1.2-2.4c0.8,0.3,0.8,0.7,0.7,1.3c-0.1,1.8-1.1,3.3-1.7,4.9c-0.3,0.7-0.9,1.2-1.6,1.2c-0.8,0-1.4-0.3-1.8-1.1
			c-1.1-2.9-2.4-5.8-3.5-8.7c-0.3-0.7-0.6-1.3-1-2.1c-1.5,0.3-2.1,1.3-2.3,2.6c-0.4,3-0.8,5.9-1.1,8.9c-1,0.2-1.8,0.2-2.8,0.1
			c-0.4-1.8,0.1-3.7,0.3-5.5c0.4-2.9,0.5-5.7,0.9-8.6c0.5-3.9,0.7-7.9,1.2-11.9c0.4-2.6,0.5-5.3,0.7-7.8c0-0.6,0-1.1,0.2-1.6
			c0.6-2.6,0.2-3.3-2.9-3.9c1.9-1.5,3.7-1.7,5.9-1.6c0,2.1,0.2,4.2-0.1,6.3c-0.2,1.3-0.2,2.7-0.4,4c-0.2,2.3-1,4.4-0.9,6.7
			c0.1,3.3-0.5,6.5-0.9,9.8C500.7,503.6,500.8,504.1,500.8,504.7z"/>
		<path fill="#D02C42" d="M272.6,511.4c-0.5,2.5-1.9,4.3-3.8,5.8c-1.2,1-2.6,0.3-2.7-1.3c-0.1-2.7-0.1-5.5,0.1-8.1
			c0.2-3.2,0.6-6.3,0.6-9.6c0-1.2-0.7-2.1-1.8-2.4c-1.1-0.3-2,0.2-2.7,1.2c-1.7,2.9-2.3,6-2.6,9.3c-0.3,3.3-0.6,6.5-1.1,9.8
			c-0.2,1.8-1.7,1-2.8,1.1c-0.5-2.6,0.1-5,0.3-7.5c0.2-2.4,0.6-4.8,0.8-7.2c0.2-1.9,0.9-3.9-0.3-5.9c-1.7,0.6-1.6,2.5-2.7,3.6
			c-0.2-0.2-0.3-0.3-0.4-0.4c-0.8-1.7,0.9-6.1,2.5-6.9c1.4-0.7,2.3-0.3,2.8,1.1c0.4,1.1,0.2,2.3,0.4,3.7c1.1-1.6,2.1-3.1,3.4-4.2
			c2.5-2,5.3-1.2,6.3,1.7c0.6,1.7,0.4,3.4,0.4,5.2c-0.1,3.5-0.1,7.1-0.7,10.6c-0.2,1-0.3,1.9,0.6,2.7
			C271.7,511.2,271.7,511.2,272.6,511.4z"/>
		<path fill="#D02C42" d="M237.6,496.5c-1,0-1.7,0-2.5,0c-0.8,0-1.1-0.4-1.1-1.1c0-0.9,0.3-1.2,1.1-1.1c0.4,0,0.8,0,1.1,0
			c1.1,0.1,1.4-0.4,1.6-1.4c0.7-3.7,1.1-7.5,2.6-11c0.9-2,2-3.9,3.9-5.2c1.6-1.1,3.4-0.2,3.6,1.8c0.1,1.1-0.3,2-0.4,3
			c-0.9,0.4-1.1-0.2-1.4-0.7c-0.5-0.6-0.4-1.5-1.4-1.4c-1.1,0.1-1.5,1.1-1.8,1.9c-1.1,2.8-1.9,5.5-1.7,8.6c0.1,1.4-0.7,2.9-0.2,4.5
			c1.1,0,2.2,0,3.3,0c0.3,2.1,0.3,2.1-3.5,2.4c-1,2.2-0.7,4.7-0.9,7c-0.5,6.1-0.7,12.2-1.7,18.4c-0.4,2.2-1.2,4.3-3.2,5.9
			c-1.1,0.9-2.1,0.6-3.1,0.7c-1.1-1.5-0.2-3.1-0.1-4.5c0-0.3,0.2-0.8,0.8-0.7c0.4,0.1,0.7,0.4,0.8,0.8c0.2,0.6,0.2,1.2,0.8,1.8
			c1.4-1,1.3-2.5,1.4-3.8c0.5-5.1,0.8-10.2,1.3-15.3C237.2,503.3,237.3,499.9,237.6,496.5z"/>
		<path fill="#D02C42" d="M473.4,512.7c-1,1.6-1.9,3-3.3,4c-1.6,1.3-3.3,1.3-5,0.8c-1.4-0.6-1.9-2.3-2-3.7c-0.4-5.3,0.8-10.2,3.3-15
			c1.1-2,2.4-3.6,4-5.2c1-0.9,2.1-1,3.2-0.7c1.7,0.4,3.5,1.6,3.9-1.8c1.2,1.6,0.7,3,0.6,4.1c-0.3,3-0.9,5.9-1.1,8.9
			c-0.2,2.7-0.7,5.4-0.5,8.1c0,0.5,0.1,1.1,0.8,1.2c0.6,0.1,0.8-0.5,1-1c0.4-0.8,0.7-1.5,1.1-2.3c1,0,1.2,0.4,1,1.2
			c-0.6,2-1.2,3.9-2.8,5.5c-1,1-2.2,1-3-0.3C474,515.4,474.1,514.1,473.4,512.7z M475,498.1c-0.1-1.4,0.3-2.7-1.1-3.2
			s-2.3,0.1-3.2,1.1c-0.9,1.1-1.6,2.1-2.2,3.3c-1.8,4-2.8,8.3-2.7,12.7c0,1,0.5,1.9,1.8,2.3c2,0.7,2.9-0.9,3.9-1.9
			c1.4-1.5,2.1-3.4,2.2-5.6C474,503.9,474.6,500.8,475,498.1z"/>
		<path fill="#D02C42" d="M415.1,513.4c1.8,0.1,1.1-2.7,3-2.5c0.5,2.7-1.2,4.5-2.8,6.3c-0.4,0.5-1.4,0.7-2.2-0.4
			c-1-1.3-1.3-2.8-1.2-4.7c-1.4,1.7-2.3,3.6-4.1,4.7c-2.1,1.2-5.2,1.3-6-1.6c-1-3.3-0.6-6.4,0.2-9.7c0.7-3,1.8-5.8,3.4-8.3
			c0.9-1.4,1.9-2.9,3.3-3.8c1.6-1.1,3.7-0.9,5.6,0.5c0.4-0.7,0.8-1.2,1.1-1.9c0.2-0.3,0.2-0.6,0.6-0.6c0.5,0.1,0.4,0.5,0.4,0.8
			c0.2,1.2-0.1,2.4-0.4,3.5c-0.6,2.5-0.3,5-1.1,7.5c-0.3,0.9-0.3,2.2-0.1,3.3C415.1,508.8,414,511.1,415.1,513.4z M404.1,509.8
			c0,1.1,0,2.1,0.4,3.1c0.6,1.5,2.1,2.3,3.3,1.5c1.3-1,2.5-2.3,3.3-3.8c0.9-1.5,0.9-3.3,1.1-5c0.4-2.8,0.8-5.6,1.1-8.4
			c0.1-0.9-0.4-1.5-1.1-2c-0.7-0.5-1.4-0.5-2.1,0c-0.7,0.6-1.5,1.1-1.9,1.8C405.7,500.9,404.2,505.2,404.1,509.8z"/>
		<path fill="#D02C42" d="M421.6,497.5c-1.3,1.3-0.8,3.4-2.4,4.9c-0.3-3.2-0.2-5.9,1.2-8.5c0.7-1.3,3.1-1.3,3.9,0
			c1.7,2.5,2.7,5.4,3.7,8.2c0.9,2.4,1.5,4.9,2.3,7.4c1.2-4.6,1.8-9.2,0.4-13.8c-0.2-0.6,0-1.1,0-1.5c0.1-0.8,0.4-1.1,1.2-1.1
			s1.2,0.5,1.4,1.2c0.8,2.5,0.2,5.1-0.1,7.6c-0.6,4.6-1.4,9.2-2.8,13.6c-1.2,4.1-2.7,8.1-5.4,11.6c-1.5,1.9-4.1,2.2-5.5,0.6
			c-0.8-1-0.7-2-0.4-3.1c0.2-0.7,0.9-0.5,1.4-0.5c0.3,0,0.5,0,0.7,0.3c1.6,1.4,2.2,1.6,3.5-0.2c2.5-3.1,4-6.6,3.2-10.8
			c-1-4.5-2.3-8.8-4.2-12.9C423.4,499.3,423,497.8,421.6,497.5z"/>
		<path fill="#D02C42" d="M540.9,508.2c-0.2-4.9,1-9,3.5-12.6c2.1-3,5-3.4,8.1-2.1c1.9,0.9,2.8,3,3.2,4.9c1,5.5,0.7,10.7-2.4,15.7
			c-1.9,3.1-4.4,4.4-7.9,3.6c-1.3-0.3-2.2-1.2-3-2.4C541,512.9,540.7,510.5,540.9,508.2z M543.8,508.6c-0.1,1.5,0.1,3.6,1,5.6
			c1,2.1,3.1,2.5,4.7,0.9c2.1-2.1,2.9-4.7,3.3-7.6c0.6-3.4,0.9-6.8-0.1-10.2c-0.4-1.6-1.1-2.8-3-2.9c-1.6-0.1-2.9,0.9-3.7,2.5
			C544.2,500.4,543.8,504.2,543.8,508.6z"/>
		<path fill="#D02C42" d="M181.5,503.6c-0.4,3.7-1,7.9-3.7,11.5c-2,2.5-4.5,3.3-7.4,2.5c-2.3-0.7-3.4-2.8-3.9-5
			c-1.2-5.5-0.5-10.7,2.1-15.7c1.5-2.9,4-4.8,7.6-4.1c2.3,0.5,3.6,2.1,4.3,4.2C181.2,499,181.5,501,181.5,503.6z M178.5,501.7
			c0-0.6,0.1-1.2,0-1.8c-0.2-1.1-0.4-2.1-0.7-3.2c-0.4-1.5-1.4-2.2-3.1-2.2s-3.1,1.2-3.8,3c-1.3,3.1-1.8,6.2-2.1,9.5
			c-0.3,2.5,0.2,4.8,0.9,7.1c0.6,1.9,3.6,2.9,4.8,1.5c1-1.1,1.9-2.4,2.4-3.9C178.1,508.4,178.2,505,178.5,501.7z"/>
		<path fill="#D02C42" d="M98.6,478c0.1-1.1,0.4-1.5,1.5-1.5c1.1,0,2-0.3,3-0.6c1.3-0.4,1.7,0.1,1.5,1.4c-0.4,3.3-0.8,6.7-1.1,10
			c-0.3,2.6-0.1,5.3-0.8,7.6c-0.6,2.3,0,4.6-0.7,6.7c-1,3.4-0.2,6.9-0.9,10.2c-0.1,0.4-0.1,0.9,0.2,1.3c2.2-0.1,1.7-3.2,3.8-3.6
			c0.2,1.3,0.3,2.4-0.8,3.3c-0.5,0.4-0.7,1-0.8,1.5c-0.3,1.4-1.6,2.1-2.8,2.8c-1.1,0.8-2,0.2-2.5-1.1c-0.7-2-0.4-4.1-0.3-6.1
			c0.2-3,0.6-5.9,1-9c0.4-3.9,0.9-7.7,1.2-11.7c0.3-2.8,0.6-5.5,0.7-8.3C101.4,478.6,101.2,478.4,98.6,478z"/>
		<path fill="#D02C42" d="M204.9,513.4c1.6-0.8,1.6-3.1,3.5-3.7c0.1,0.9,0.2,1.5-0.1,2.3c-0.8,2.1-1.9,4-3.8,5.3
			c-1.4,1-2.4,0.5-2.9-1c-0.6-1.9-0.4-3.9-0.3-5.8c0.2-2.9,0.6-5.6,0.9-8.5c0.4-4,0.9-8,1.2-12c0.3-2.6,0.5-5.3,0.7-7.8
			c0-0.2,0-0.5,0-0.7c0.1-2.8,0.1-2.8-3-3.5c1.9-2.1,4.2-1.5,6.6-1.7c-0.6,2.3-0.2,4.5-1.2,6.6c-0.5,1,0,1.8-0.1,2.8
			c-0.3,3.2-0.1,6.4-0.9,9.5c-0.9,3.7-0.3,7.6-1.1,11.2c-0.5,1.9-0.3,4-0.4,5.9C204.3,512.8,204.4,513.1,204.9,513.4z"/>
		<path fill="#D02C42" d="M209.2,509.3c-0.3-4.6,1.2-8.7,3.4-12.4c1.1-2,2.8-4,5.6-4.1c2.5-0.1,3.5,0.5,3.9,3.5c0.5,3.3-0.7,6-4,8
			c-1.5,1-3.1,1.2-4.8,1.2c-0.7,0-1.2,0.1-1.2,1c0,1.6-0.1,3.3,0.5,5c0.9,2.8,5.3,4.5,7.7,1.3c0.4-0.5,0.8-1.3,1.5-0.8
			c0.7,0.6,0.1,1.2-0.3,1.8c-1.9,3-4.6,4.4-8.1,3.7c-2-0.4-3.1-1.8-3.7-3.5C209.3,512.6,209,510.9,209.2,509.3z M212.4,503
			c-0.1,1.1,0.2,1.2,1.3,1.1c3.3-0.8,5.6-3.2,5.9-6.4c0.1-1-0.3-1.8-1.1-2.5c-0.8-0.6-1.5-0.3-2.1,0.2
			C214.1,497.4,213.3,500.2,212.4,503z"/>
		<path fill="#D02C42" d="M586.2,509.1c-0.2-4.4,1.2-8.4,3.4-12.1c1.1-2,2.7-4.1,5.6-4.1c2.7,0,3.9,1.1,4,3.8c0.2,3.6-1.2,6-4.6,7.8
			c-1.4,0.8-2.8,1.1-4.3,1.1c-0.8,0-1.2,0.2-1.2,1.1c-0.1,2.1,0.1,4.1,1.1,6c1,1.7,3.8,2.3,5.5,1.1c0.8-0.5,1.6-0.9,2.1-1.7
			c0.1-0.2,0.7-0.7,1.1-0.2c0.3,0.3,0.3,0.7,0.2,1.1c-0.6,1.9-4,4.4-5.7,4.7c-5.5,0.8-6.8-3.2-7.2-7
			C586.2,510.2,586.2,509.6,586.2,509.1z M589.4,503.1c-0.3,1.1,0,1.2,1.1,1c3.3-0.8,5.5-2.7,6-6.1c0.2-1.1-0.2-2.1-1-2.8
			c-0.9-0.8-1.6-0.1-2.4,0.6C590.8,497.7,590.3,500.5,589.4,503.1z"/>
		<path fill="#D02C42" d="M42.8,505.7c0,2.3-0.4,4.4,0.8,6.4c1.2,2.4,3.8,3.2,6.2,1.6c0.8-0.5,1.8-0.8,2.1-1.8
			c0.9,0.2,1.1,0.5,0.8,1.3c-1.5,3.5-5.5,5.5-9.2,4.3c-1.1-0.4-2.2-1.4-2.7-2.8c-1.6-3.9-1.2-7.9-0.1-11.9c1.1-3.4,2.4-6.7,5.4-9.1
			c1.1-0.9,3.6-1.3,5-0.8c1.4,0.7,1.4,1.9,1.6,3.3c0.3,2.4,0,4.5-1.7,6.3C48.8,504.9,46.1,505.8,42.8,505.7z M49.9,497.8
			c0-0.2,0-0.5,0-0.7c0.1-1.1-0.5-1.8-1.2-2.2c-0.7-0.4-1.2,0.4-1.8,0.8c-2.6,1.9-3,4.9-4,7.6c-0.2,0.6,0.2,1.1,0.9,1.1
			C46.4,504,50.3,500.9,49.9,497.8z"/>
		<path fill="#D02C42" d="M94.7,511.9c0.7,1.7-0.3,2.6-1.3,3.5c-1.6,1.5-3.5,2.5-5.7,2.5c-2.6,0-4-1.7-4.8-3.9
			c-1.1-3.7-0.9-7.6,0.2-11.3c0.8-2.7,1.9-5.2,3.7-7.3c1.1-1.1,2.1-2.3,3.7-2.5c3-0.5,4.5,0.9,4.8,4.2c0.3,2.5-1.5,5.6-3.6,7
			c-1.7,1.1-3.4,1.7-5.5,1.6c-0.9,0-1.4,0.4-1.2,1.4c0.4,2.5,0.1,5.2,2.8,6.8c1.2,0.8,3.9,0.8,5-0.2
			C93.2,513.1,93.6,512.1,94.7,511.9z M92.4,497.9c0-0.2,0-0.3,0-0.5c0.1-1.1-0.4-2-1.4-2.4c-1-0.4-1.5,0.3-2.2,1
			c-1.7,1.9-2.6,4.2-3.3,6.6c-0.1,0.5-0.6,1,0,1.4c0.5,0.4,1.1,0.2,1.7,0.2c0.4-0.1,0.8-0.4,1.1-0.7
			C90.4,502.2,92.4,500.8,92.4,497.9z"/>
		<path fill="#D02C42" d="M340.9,511.7c1,0.5,1.1,1.1,0.7,1.7c-2.2,3.5-4.9,4.9-8.9,4.1c-1.1-0.2-2.1-1.2-2.7-2.5
			c-2.4-5.3-1.1-10.4,0.9-15.4c0.9-2.2,2.1-4.3,4.2-5.8c1.6-1.1,3.2-1.4,4.8-0.9s2,2.2,2,3.8c0,1.5-0.3,3-0.9,4.5
			c-0.6,1.3-1.8,1.7-2.6,2.4c-1.4,1.1-3.1,2.1-5.2,1.8c-1.1-0.2-1.4,0.4-1.5,1.5c-0.1,2.1,0.3,4.1,1.4,5.9c0.8,1.2,3.9,2,5,1.1
			C339,513.4,340.3,513,340.9,511.7z M331.8,502.4c-0.1,1.4,0.3,1.9,1.7,1.5c1.1-0.3,1.9-1,2.9-1.5c1.9-1.2,2.8-3.3,2.7-5.5
			c-0.1-1.8-1.5-2.7-2.9-1.8C333.6,496.9,333.1,499.8,331.8,502.4z"/>
		<path fill="#D02C42" d="M153.3,506.1c-0.6,2.5,0.5,4.5,1.2,6.5c0.8,1.9,4.4,2.4,6.1,1.1c0.6-0.5,1.2-0.7,1.8-1.2
			c1.2,0.3,0.7,1.1,0.4,1.6c-1,1.7-2.5,3-4.4,3.4c-2,0.6-4.2,0.7-5.8-1.1c-1-1.1-1.5-2.4-1.8-3.6c-0.9-4.9,0-9.5,2.3-13.9
			c1-1.9,2-3.5,3.8-5c1.6-1.2,3.2-1.4,4.8-0.8c1.5,0.6,1.7,2.1,1.9,3.7c0.7,4.9-4,9-8.5,8.8C154.4,505.6,153.9,506,153.3,506.1z
			 M160.9,497.6c0-1.1-0.3-1.9-1.2-2.6c-0.7-0.5-1.3-0.2-1.8,0.2c-2.4,2-3.3,4.8-4.1,7.6c-0.2,0.7-0.1,1.6,1,1.4
			C158,503.6,160.7,501.2,160.9,497.6z"/>
		<path fill="#D02C42" d="M493.2,511.4c1.3,1.2,0.2,2.3-0.3,2.9c-2.1,2.7-5,4.2-8.5,3.3c-1.8-0.5-2.6-2.2-3-3.6
			c-1.6-5.9-0.7-11.7,2.3-17c2-3.6,5.5-5,8.7-3.8c1.9,0.7,2.9,3.6,1.7,5.4c-0.6,0.9-1.5,0.8-2-0.2c-0.3-0.7-0.6-1.4-1.1-2
			c-1.6-2-3.8-1.7-5.1,0.8c-2.3,4.5-3.2,9.4-1.6,14.2c0.4,1.1,0.5,2.7,2.2,3.1c2.2,0.5,3.9-0.4,5.5-1.8
			C492.5,512.2,492.8,511.7,493.2,511.4z"/>
		<path fill="#D02C42" d="M301.7,496.1c-0.1-0.7-0.3-1.3,0-1.5c2.7-1.2,3.1-4.5,5.5-6.3c0.5,2.2-0.3,3.8-0.4,5.7
			c1.1,0.4,2.5,0,3.6,0.3c0.5,2,0.5,2-3.8,2.3c-0.7,2.5-0.8,5.1-1.1,7.6c-0.2,2-0.3,4.1-0.7,6.1c0,0.1,0,0.2,0,0.3
			c0,1.1-0.4,2.5,1,3c1.2,0.5,2.2-0.3,2.8-1.5c0.2-0.4,0.6-0.8,1-0.9c0.6-0.2,1.1-0.1,0.9,0.7c-0.9,2.5-2.3,4.6-4.7,5.7
			c-1.6,0.8-3.2-0.2-3.5-2c-0.6-2.9-0.1-5.7,0.1-8.5c0.2-2.7,0.6-5.4,0.9-8c0-0.4-0.1-1,0-1.3C304,496.2,302.9,496.1,301.7,496.1z"
			/>
		<path fill="#D02C42" d="M358.4,497.6c0.9-1.2,1.6-2.6,2.5-3.7c1.3-1.6,3.4-1.5,4.1,0.2c0.4,0.9-0.6,4.1-1.5,5
			c-0.3-0.6-0.7-1.2-0.9-1.8c-0.2-0.5-0.5-1-1.1-0.8c-0.4,0.1-0.8,0.2-1.1,0.8c-1.1,2.2-1.1,4.6-1.6,7c-0.4,1.8,0,3.7-0.9,5.5
			c-0.4,0.9-0.1,2-0.1,3c-0.1,1.5-0.2,3-0.4,4.5c-1,0-1.8,0-2.8,0c-0.6-1.7,0.1-3.5,0.3-5.3c0.3-3.3,0.9-6.5,1.1-9.8
			c0.2-1.3-0.2-2.7-0.6-3.9c-0.2-0.6-0.3-1-1-0.9c-0.5,0.1-1,0.2-1.1,1c-0.1,0.5-0.3,1.1-0.3,1.5c0,0.7-0.2,1.3-1.1,1.3
			c-0.7-3,0.3-5.5,1.7-7.9c0.7-1.1,2.3-0.9,3,0.3C357.7,495,358,496.3,358.4,497.6z"/>
		<path fill="#D02C42" d="M251.3,492.9c-0.7,7-2.4,13.6-2.5,20.6c1.7-0.8,1.3-3.1,3.3-3.3c0.2,2.5-1.2,4.1-2.3,5.8
			c-0.2,0.4-0.6,0.7-0.9,1c-1,1.1-2.6,0.8-2.9-0.7c-0.2-1.1-0.5-2.3-0.4-3.6c0.4-2.7,0.4-5.4,0.9-8c0.3-1.9,0.6-3.9,0.9-5.8
			c0.1-0.8,0.2-1.6,0.1-2.4c-0.2-1.2-1.2-0.6-2-0.9c-0.4-0.2-1.1-0.2-0.9-1c0.1-0.4,0.3-1.1,0.7-1
			C247.4,493.7,249.3,493,251.3,492.9z"/>
		<path fill="#D02C42" d="M346.7,495.9c-1.2-0.2-2.2,0.1-2.8-0.8c-0.5-0.8-0.1-1.4,0.4-1.5c1.9-0.3,3.8-0.5,5.9-0.7
			c-0.9,6.8-2.4,13.5-2.3,20.4c1.1-0.9,1.6-2.1,2.8-3.1c1.1,0.7,0.3,1.8,0,2.5c-0.7,1.5-1.5,3.1-2.8,4.3c-0.5,0.5-1.1,0.7-1.5,0.6
			c-0.8-0.3-1.1-1-1.4-1.8c-0.8-2.6,0-5.2,0.2-7.7C345.6,504.1,346.3,500,346.7,495.9z"/>
		<path fill="#D02C42" d="M604.8,517.6c-2.5-2.5-2.6-4.8,0.3-7C608.1,513.2,607.7,515.1,604.8,517.6z"/>
		<path fill="#D02C42" d="M351.2,483.9c0.1,1.1-0.6,1.9-1.1,2.8c-0.5,0.8-1.1,0.6-1.5-0.2c-0.9-1.7-1.1-3.5,0-5.3
			c0.5-0.8,1.1-1.1,1.7-0.1C350.8,481.9,351.1,482.8,351.2,483.9z"/>
		<path fill="#D02C42" d="M249,484c0-1.7,1.1-3.7,1.7-3.4c1.2,0.5,1.3,1.9,1.5,3.1c0.2,1.1-0.4,2.2-1.1,3.1
			c-0.5,0.6-1.1,0.6-1.4-0.1C249.6,485.6,248.7,484.8,249,484z"/>
		<path fill="#F1B2AA" d="M283.5,391.2c-1.2-2.7-2.4-5.2-4.1-7.4c-2-2.5-4.1-5-6.8-7c-2-1.5-4.2-2.7-6.2-4.1
			c-3.8-2.6-8.1-1.1-9.7,3.2c-1.6,4.5-0.7,8.7,1,12.8c2.2,5.5,5.5,10.3,9.7,14.6c3.8,3.9,7.7,7.6,12,11.2c1.1,1,2.1,2,2.5,3.5
			c0.6,2.3,2,4.1,3.3,5.9c1.3,1.7,3.6,1.5,4.9-0.2c1.6-2.3,3.3-4.7,5.2-6.8c3.3-3.5,6-7.4,9.1-10.9c1.9-2.3,3.6-4.9,5.4-7.4
			c3.3-5,5.9-10.2,7.4-16c0.6-2.3,1.4-4.6,0.8-7.1c-0.4-1.4-0.8-2.8-1-4.2c-0.1-1.1-0.8-1.7-1.7-2c-4.7-1.5-9-1-13,1.9
			c-2.2,1.5-4,3.4-5.8,5.4c-2.8,2.8-5,6-7.6,9C287.2,387.5,285.4,389.3,283.5,391.2z"/>
		<path fill="#FCFBFB" d="M289.6,355.2c-1.4,1.7-2.5,3.3-4,4.8c-1.2,1.1-2.4,2.4-4,3c-0.8,0.3-1.4,0.3-2-0.4
			c-0.7-0.8,0.1-1.1,0.4-1.6c1.4-1.9,3.3-3.4,5.5-4.2C286.8,356.1,287.9,355.4,289.6,355.2z"/>
		<path fill="#FCFBFB" d="M320.5,369.3c0.6-0.3,1.1-0.2,1.5-0.1c1.8,4.6,1.2,9.3,0.2,12.8C321.7,377.6,321.1,373.4,320.5,369.3z"/>
		<path fill="#FCFBFB" d="M303.7,424.8c2,1.3,4.1,1.9,5.9,3.3c-1.2,0.4-2.4,0.8-3.5,1.1c-1.2,0.3-2.3-0.7-3.4-1
			c-0.6-0.2-1.1-0.9-0.3-1.5C302.9,426.2,303.2,425.5,303.7,424.8z"/>
		<path fill="#FCFBFB" d="M275.3,364.2c-1.7,2.5-3.8,4-6.1,5.5c-0.7-1.2,0-2.2,0.6-3c1.1-1.3,2.8-2,4-3.3
			C274.3,362.8,274.5,364.1,275.3,364.2z"/>
		<path fill="#FCFBFB" d="M289.6,377.9c1.1-3.6,4.5-6.2,7.6-6C294.8,374,292.7,376.5,289.6,377.9z"/>
		<path fill="#FCFBFB" d="M314.3,417.3c0.5-1.5,1-3,2.5-4c0.5-0.3,0.9-0.6,1.1-0.3c0.3,0.2,0.4,0.8,0.4,1.1
			C318.2,416.5,316.7,417.7,314.3,417.3z"/>
		<path fill="#FCFBFB" d="M253.7,421.4c1.4,0,2.7,0,4,0c0.5,0.6,0.1,1.1,0.3,1.7C254.7,423.8,254.1,423.5,253.7,421.4z"/>
		<path fill="#FCFBFB" d="M294,366.3c-1.5-1.6-0.9-4.1,1.4-5.1C295.6,363,295.3,364.7,294,366.3z"/>
		<path fill="#FCFBFB" d="M321.8,401.1c0.7-2.3,1.2-4.4,2-6.9c0,2.5,0,4.7,0,6.9C323.1,401.1,322.4,401.1,321.8,401.1z"/>
		<path fill="#FCFBFB" d="M265.3,421.9c-0.8-1.3-1.4-2.5-2.1-3.7c1.5-0.3,2.2,0.7,2.9,1.7C266.4,420.7,266,421.2,265.3,421.9z"/>
		<path fill="#FCFBFB" d="M272,427.9c-0.3-0.9,0.3-1.4,0.9-1.5c1-0.2,2-0.1,2.8,1C274.4,428.4,273.1,427.7,272,427.9z"/>
		<path fill="#FCFBFB" d="M303.9,366.2c0-0.6,0-1.1,0-1.7c0.9-0.2,1.6-0.1,2.5-0.1C306.4,366,305.6,366.5,303.9,366.2z"/>
		<path fill="#FCFBFB" d="M329.7,371.8c0.5,0,1,0,1.5,0c0,1.6,0,3.2,0,5C330.6,375,330.5,373.3,329.7,371.8z"/>
		<path fill="#FCFBFB" d="M317.6,395.2c0.3-1.6,0.8-3.3,1.6-5.2C319.3,392.4,319,394,317.6,395.2z"/>
		<path fill="#FCFBFB" d="M301.3,359.4c0.8,0.6,1.2,1.1,1.4,1.8c-0.5,0-1,0-1.4,0C301.3,360.7,301.3,360.1,301.3,359.4z"/>
		<path fill="#FCFBFB" d="M294,426.2c-0.2,0.1-0.3,0.2-0.5,0.3c-0.1-0.3-0.1-0.5,0.2-0.6C293.8,426,293.9,426.1,294,426.2z"/>
		<path fill="#FCFBFB" d="M133.7,384.8c-2.3-13.3-0.4-25.9,1.5-38.7c2.5-0.4,5-0.3,7.2,0.4c2.6,0.8,5.3,1.2,7.7,2.6
			c3.5,2,6.3,4.8,8.6,8c0.4,0.6,0,1.3-0.2,1.9c-1.1,4.3-3.3,8.1-6.5,11.1c-2.8,2.7-5.9,5-9.4,7.1c-2.4,1.4-4.8,3.1-6.7,5.2
			C135.3,383.1,134.2,383.4,133.7,384.8z"/>
		<path fill="#FCFBFB" d="M379.5,497.7c0.4,3-0.5,5.6-0.3,8.3c0,0.5-0.4,1-0.8,1c-0.4,0-1-0.2-1.1-0.7
			C376.5,503.8,377.1,499.3,379.5,497.7z"/>
		<path fill="#FCFBFB" d="M145.9,503.8c-0.2,3.3-0.8,7.2-3.6,10.4c-1.1,1.1-2,2.1-3.8,1.9c-1.1-0.1-1.5-0.4-1.4-1.4
			c0.3-3,0.6-5.8,0.9-8.8c0.1-1.7,0.2-3.4,0.2-5.3c0.1-1.6,0.4-3.3,0.9-5c0.4-1.3,3.1-1.1,4.3,0
			C145.4,497.7,145.9,500.2,145.9,503.8z"/>
		<path fill="#FCFBFB" d="M284.7,497.7c-0.9,4.4-0.5,9-2,13.3c-0.5,1.4-1.4,2.5-2.5,3.3c-1.6,1.3-4-0.2-4.4-2.9
			c-0.7-4.2,0.4-8.1,2-12c0.6-1.3,1.1-2.8,2.4-3.8c1.1-0.9,2.1-1.3,3.3-0.8C284.8,495.5,284.4,496.7,284.7,497.7z"/>
		<path fill="#FCFBFB" d="M118.9,503.4c-0.4,3.8-1,7.7-3.7,10.9c-0.5,0.6-1.1,1.1-1.6,1.4c-1,0.5-2.2,0.7-3.1,0.1
			c-0.9-0.5-0.5-1.7-0.4-2.6c0.4-3.2,0.5-6.3,0.8-9.6c0.2-2.6,0.5-5.3,0.8-7.8c0.1-1.2,3.1-1.5,4.4-0.5
			C118.4,497.4,118.7,500.2,118.9,503.4z"/>
		<path fill="#FCFBFB" d="M187.3,516c-0.7-1.9,0-3.8,0.2-5.7c0.2-3.3,0.6-6.6,0.9-9.9c0.1-1.1,0.3-2.2,0.1-3.3
			c-0.1-0.8,0-1.8,1.1-2.1c1.3-0.3,2.7-0.5,3.8,0.6c3,2.9,2.9,6.6,2.4,10.2c-0.3,2.2-0.9,4.4-2,6.5C192.1,515,190.4,516.1,187.3,516
			z"/>
		<path fill="#FCFBFB" d="M459.3,502.3c-0.1,4.3-1.2,8.3-4,11.9c-1.8,2.3-4.3,2.5-5.4,1.1c-0.4-0.5-0.4-1-0.5-1.4
			c-0.2-3.2,0.4-6.2,0.8-9.3c0.4-3,1.7-5.6,4-7.6c1-0.9,2.8-0.9,3.7,0.5C459.1,498.8,459.4,500.5,459.3,502.3z"/>
		<path fill="#FCFBFB" d="M475,498.1c-0.4,2.7-1,5.6-1.1,8.7c-0.2,2.2-0.8,4.1-2.2,5.6c-1,1.1-1.8,2.6-3.9,1.9
			c-1.2-0.4-1.8-1.3-1.8-2.3c-0.1-4.5,0.9-8.7,2.7-12.7c0.6-1.1,1.3-2.3,2.2-3.3c0.9-1.1,1.8-1.6,3.2-1.1
			C475.3,495.5,474.8,496.8,475,498.1z"/>
		<path fill="#FCFBFB" d="M404.1,509.8c0.2-4.7,1.6-8.9,4-12.8c0.5-0.8,1.2-1.2,1.9-1.8c0.7-0.5,1.4-0.6,2.1,0
			c0.7,0.5,1.1,1.1,1.1,2c-0.4,2.8-0.8,5.6-1.1,8.4c-0.3,1.7-0.3,3.4-1.1,5c-0.9,1.5-1.9,2.8-3.3,3.8c-1.1,0.9-2.6,0-3.3-1.5
			C404.1,511.9,404,510.8,404.1,509.8z"/>
		<path fill="#FCFBFB" d="M543.8,508.6c0-4.5,0.4-8.2,2.3-11.7c0.9-1.6,2.1-2.6,3.7-2.5c1.8,0.1,2.5,1.2,3,2.9
			c1,3.4,0.6,6.8,0.1,10.2c-0.5,2.8-1.2,5.5-3.3,7.6c-1.6,1.6-3.7,1.2-4.7-0.9C543.8,512.3,543.6,510.2,543.8,508.6z"/>
		<path fill="#FCFBFB" d="M178.5,501.7c-0.3,3.3-0.4,6.7-1.6,9.9c-0.6,1.5-1.4,2.8-2.4,3.9c-1.1,1.3-4.1,0.3-4.8-1.5
			c-0.7-2.3-1.1-4.6-0.9-7.1c0.3-3.3,0.8-6.4,2.1-9.5c0.8-1.7,2.1-3,3.8-3c1.5,0,2.6,0.8,3.1,2.2c0.3,1.1,0.5,2.1,0.7,3.2
			C178.6,500.4,178.5,501.1,178.5,501.7z"/>
		<path fill="#FCFBFB" d="M212.4,503c0.9-2.8,1.6-5.7,4-7.7c0.6-0.5,1.3-0.8,2.1-0.2c0.9,0.7,1.1,1.5,1.1,2.5
			c-0.3,3.3-2.6,5.6-5.9,6.4C212.7,504.2,212.4,504.1,212.4,503z"/>
		<path fill="#FCFBFB" d="M589.4,503.1c1-2.6,1.3-5.5,3.7-7.4c0.8-0.7,1.5-1.3,2.4-0.6c0.8,0.7,1.1,1.6,1,2.8
			c-0.6,3.4-2.8,5.4-6,6.1C589.4,504.4,589.1,504.2,589.4,503.1z"/>
		<path fill="#FCFBFB" d="M49.9,497.8c0.4,3.1-3.5,6.1-6.2,6.4c-0.7,0.1-1.1-0.4-0.9-1.1c1.1-2.7,1.4-5.6,4-7.6
			c0.7-0.5,1.1-1.1,1.8-0.8c0.8,0.4,1.3,1.1,1.2,2.2C49.9,497.4,49.9,497.6,49.9,497.8z"/>
		<path fill="#FCFBFB" d="M92.4,497.9c0,2.9-2,4.4-4.1,5.7c-0.4,0.2-0.7,0.6-1.1,0.7c-0.6,0.1-1.2,0.3-1.7-0.2c-0.6-0.5-0.1-1,0-1.4
			c0.6-2.4,1.5-4.7,3.3-6.6c0.7-0.7,1.3-1.3,2.2-1c1,0.4,1.5,1.2,1.4,2.4C92.4,497.6,92.4,497.7,92.4,497.9z"/>
		<path fill="#FCFBFB" d="M331.8,502.4c1.1-2.6,1.8-5.5,4.4-7.3c1.2-0.9,2.8,0,2.9,1.8c0.1,2.3-0.7,4.2-2.7,5.5
			c-0.9,0.6-1.6,1.2-2.9,1.5C332.1,504.3,331.7,503.9,331.8,502.4z"/>
		<path fill="#FCFBFB" d="M160.9,497.6c-0.2,3.5-3,6-6.1,6.6c-1.1,0.2-1.1-0.8-1-1.4c0.9-2.8,1.7-5.6,4.1-7.6
			c0.5-0.4,1.1-0.7,1.8-0.2C160.6,495.6,160.9,496.5,160.9,497.6z"/>
		<path fill="#D02C42" d="M283.5,391.2c1.9-1.9,3.5-3.6,5.3-5.5c2.7-2.9,4.8-6.2,7.6-9c1.9-1.9,3.6-3.8,5.8-5.4
			c4.1-3,8.4-3.5,13-1.9c1,0.3,1.6,0.9,1.7,2c0.2,1.4,0.6,2.9,1,4.2c0.6,2.5-0.3,4.8-0.8,7.1c-1.4,5.8-4,11-7.4,16
			c-1.7,2.5-3.3,5.1-5.4,7.4c-3.1,3.6-5.9,7.5-9.1,10.9c-1.9,2.1-3.4,4.5-5.2,6.8c-1.2,1.7-3.6,1.8-4.9,0.2
			c-1.4-1.8-2.8-3.7-3.3-5.9c-0.4-1.6-1.4-2.7-2.5-3.5c-4.2-3.5-8.2-7.2-12-11.2c-4.1-4.3-7.5-9.1-9.7-14.6c-1.6-4.1-2.6-8.4-1-12.8
			c1.5-4.2,5.8-5.7,9.7-3.2c2,1.4,4.2,2.6,6.2,4.1c2.6,2,4.7,4.4,6.8,7C281.2,386.1,282.4,388.5,283.5,391.2z"/>
	</g>
</g>
</svg>
