<?xml version="1.0" encoding="utf-8"?>
<!-- Generator: Adobe Illustrator 18.0.0, SVG Export Plug-In . SVG Version: 6.00 Build 0)  -->
<!DOCTYPE svg PUBLIC "-//W3C//DTD SVG 1.1//EN" "http://www.w3.org/Graphics/SVG/1.1/DTD/svg11.dtd">
<svg version="1.1" id="Layer_1" xmlns="http://www.w3.org/2000/svg" xmlns:xlink="http://www.w3.org/1999/xlink" x="0px" y="0px"
	 viewBox="0 0 202 177" enable-background="new 0 0 202 177" xml:space="preserve">
<g>
	<path fill="#67CC67" d="M195.2,94.1c-0.2,0.1-0.4,0.3-0.4,0.6c0,3.9-0.9,7.7-1.8,11.3c-1.2,4.9-2.5,9.8-4.6,14.5
		c-2,4.4-4.2,8.7-6.8,12.7c-3.1,4.7-6.5,8.9-10.4,12.8c-2.6,2.6-5.3,5.1-8.1,7.4c-4.1,3.5-8.6,6.3-13.1,8.9
		c-8.8,5-18.1,8.3-27.8,10.3c-9.2,1.8-18.4,2.4-27.7,1.7c-11.4-0.8-22.3-3.6-32.9-8.3c-5.1-2.3-10.1-5-14.8-8.3
		c-4.4-3-8.5-6.3-12.4-10.1c-4.5-4.5-8.5-9.4-12.1-14.9c-5.1-7.8-8.8-16.4-11.1-25.7c-0.9-3.9-1.8-8-2-12.1c0-0.4,0-0.8-0.4-0.9
		c0-4,0-7.9,0-11.9C9,82,9.2,81.8,9.2,81.6c0.5-4.3,1.3-8.6,2.3-12.7c1.6-5.9,3.6-11.6,6.4-16.9c2.4-4.7,5.1-9.1,8.3-13.2
		c4.2-5.5,8.9-10.3,14.1-14.6c6.5-5.3,13.5-9.6,20.9-13c9.3-4.2,19.1-6.8,29.1-8c1.3-0.2,2.8,0.1,4.1-0.7c4.9,0,9.8,0,14.6,0
		c0.2,0.5,0.6,0.4,1,0.5c4.8,0.2,9.5,1.1,14.2,2.1c9.1,2,17.7,5.4,25.9,10c8,4.5,15.4,10.1,22,17c4,4.2,7.6,8.9,10.7,14
		c3.4,5.5,6.2,11.5,8.2,17.8c1.4,4.5,2.4,9.1,3.1,13.7c0.3,1.8,0.1,3.8,0.9,5.5C195.2,86.7,195.2,90.4,195.2,94.1z M101.7,171.8
		c4.8,0,9.6-0.5,14.4-1.2c7.5-1,14.7-3,21.8-5.9c5.8-2.3,11.3-5.4,16.6-8.8c4.2-2.7,7.9-6,11.6-9.4c3.3-3.1,6.4-6.5,9.1-10.2
		c3-4.1,5.7-8.4,8-13c1.9-3.9,3.4-8,4.7-12.3c1.8-6,3.1-12.1,3.3-18.4c0.1-6.3,0-12.6-1.3-18.8c-0.8-3.8-1.7-7.6-3-11.2
		c-1.8-5.2-4.1-10-6.9-14.6c-2-3.4-4.2-6.5-6.6-9.5c-2.6-3.2-5.4-6.1-8.4-8.9c-4-3.8-8.4-7.1-12.9-9.9c-6.3-3.9-13-7.2-20-9.4
		c-6.1-1.9-12.3-3.4-18.5-4.2c-5.5-0.7-11.1-0.8-16.6-0.5C90.7,6,84.5,6.8,78.4,8.3c-7.2,1.7-14.1,4.3-20.8,7.8
		c-5.6,2.9-11,6.3-15.9,10.5c-3.6,3.1-7,6.4-10.2,10.1C27.4,41.5,24,46.7,21,52.2c-2.2,3.9-3.8,8.3-5.2,12.6
		c-1.7,5.4-3,10.9-3.3,16.8c-0.4,8.3-0.3,16.5,1.7,24.7c1.4,5.7,3.3,11.1,5.7,16.4c2,4.2,4.3,8.2,6.9,11.8
		c4.8,6.6,10.2,12.3,16.4,17.2c6.3,5,13,9.1,20.2,12.2C75.7,169.2,88.5,171.6,101.7,171.8z"/>
	<path fill="#FDFEFD" d="M101.7,171.8c-13.1-0.1-25.9-2.6-38.2-7.9c-7.2-3.1-13.9-7.1-20.2-12.2c-6.2-4.9-11.7-10.6-16.4-17.2
		c-2.6-3.6-5-7.6-6.9-11.8c-2.4-5.3-4.3-10.7-5.7-16.4c-2-8.2-2-16.4-1.7-24.7c0.3-5.8,1.6-11.4,3.3-16.8c1.4-4.4,3-8.7,5.2-12.6
		c3.1-5.5,6.5-10.7,10.5-15.5c3.2-3.7,6.6-7,10.2-10.1c4.9-4.2,10.3-7.6,15.9-10.5c6.7-3.5,13.6-6.1,20.8-7.8
		C84.5,6.8,90.7,6,96.9,5.7c5.6-0.3,11.1-0.2,16.6,0.5c6.3,0.8,12.4,2.2,18.5,4.2c7,2.2,13.6,5.5,20,9.4c4.6,2.8,8.9,6.1,12.9,9.9
		c3,2.8,5.8,5.8,8.4,8.9c2.4,2.9,4.6,6.1,6.6,9.5c2.7,4.6,5.1,9.5,6.9,14.6c1.3,3.6,2.1,7.4,3,11.2c1.4,6.2,1.4,12.5,1.3,18.8
		c-0.1,6.3-1.5,12.4-3.3,18.4c-1.3,4.3-2.7,8.4-4.7,12.3c-2.3,4.6-5,8.9-8,13c-2.8,3.7-5.8,7.2-9.1,10.2c-3.7,3.4-7.4,6.7-11.6,9.4
		c-5.3,3.4-10.8,6.4-16.6,8.8c-7.1,2.9-14.3,4.9-21.8,5.9C111.3,171.3,106.5,171.8,101.7,171.8z M174,134L174,134
		c0.2-0.1,0.3-0.2,0.3-0.4c0-0.1,0.1-0.2,0.1-0.4c0.2,0,0.3-0.2,0.3-0.4l0-0.1c0.7,0.1,0.9-0.5,1-1.1c1.4-2.3,2.8-4.5,4.1-6.9
		c1.8-3.4,3.4-6.9,4.7-10.6c2.4-6.5,3.8-13.2,4.4-20.1c0.4-5.1,0.5-10.3-0.4-15.4c-1-5.7-2.2-11.4-4.2-16.8c-1.6-4.4-3.8-8.5-6-12.6
		c-2.9-5.4-6.7-10-10.7-14.2c-3.2-3.4-6.6-6.4-10.3-9.1c-3.7-2.7-7.4-5.2-11.3-7.4c-9-4.9-18.4-8.1-28.3-9.7
		c-8.3-1.4-16.6-1.8-24.9-0.9C81.9,9,71.4,11.7,61.4,16.7c-6.5,3.2-12.7,7-18.3,11.9c-2.8,2.4-5.5,5-8,7.8c-3,3.3-5.9,6.8-8.2,10.7
		c-2.7,4.5-5.3,9.2-7.2,14.3c-2.2,6-3.6,12.2-4.5,18.5c-0.6,3.9-0.5,8-0.4,12.1c0.1,5.2,1.1,10.4,2.4,15.3c1.6,6,3.8,11.6,6.7,17
		c2,3.8,4.2,7.5,6.8,10.8c4.4,5.6,9.3,10.7,14.8,15.1c5.8,4.5,11.9,8.2,18.4,11.1c10.2,4.5,20.8,7.1,31.8,7.8
		c8.1,0.6,16.2,0.1,24.2-1.5c7.7-1.5,15.2-3.9,22.5-7.4c7.2-3.5,13.9-7.9,20-13.2c4.2-3.7,8-7.9,11.4-12.5
		C173.9,134.4,174.1,134.2,174,134z"/>
	<path fill="#67CC67" d="M174.4,133.2c0,0.1-0.1,0.2-0.1,0.4c-0.1,0.1-0.2,0.2-0.2,0.4c0,0,0,0,0,0c-0.1,0.1-0.2,0.3-0.3,0.4
		c-3.5,4.6-7.2,8.9-11.4,12.5c-6.2,5.3-12.9,9.7-20,13.2c-7.2,3.5-14.7,6-22.5,7.4c-8,1.5-16.1,2-24.2,1.5
		c-11-0.8-21.6-3.3-31.8-7.8c-6.5-2.9-12.6-6.6-18.4-11.1c-5.5-4.3-10.4-9.4-14.8-15.1c-2.5-3.3-4.7-6.9-6.8-10.8
		c-2.9-5.4-5.1-11.1-6.7-17c-1.3-5-2.2-10.1-2.4-15.3c-0.1-4-0.1-8.1,0.4-12.1c0.9-6.3,2.3-12.5,4.5-18.5c1.9-5.1,4.4-9.8,7.2-14.3
		c2.3-3.9,5.2-7.3,8.2-10.7c2.5-2.8,5.3-5.4,8-7.8c5.6-4.9,11.8-8.7,18.3-11.9c10-4.9,20.5-7.7,31.3-8.8c8.3-0.8,16.6-0.5,24.9,0.9
		c9.9,1.7,19.4,4.8,28.3,9.7c3.9,2.2,7.7,4.6,11.3,7.4c3.7,2.7,7.1,5.8,10.3,9.1c4,4.3,7.8,8.9,10.7,14.2c2.2,4.1,4.4,8.1,6,12.6
		c2,5.5,3.1,11.1,4.2,16.8c0.9,5.2,0.9,10.3,0.4,15.4c-0.6,6.9-2,13.6-4.4,20.1c-1.3,3.7-2.9,7.2-4.7,10.6c-1.3,2.4-2.7,4.6-4.1,6.9
		c-0.7,0-1,0.3-1,1.1c0,0,0,0.1,0,0.1C174.6,133,174.5,133.1,174.4,133.2z M33,87.7c-0.3,5.3,0.2,10.7,1.5,15.8
		c1.1,4,2.6,8,4.5,11.7c1.9,3.8,4.1,7.4,6.6,10.6c4.5,5.8,9.8,10.8,15.8,14.6c11.4,7.3,23.8,11.1,36.9,11.6c8,0.3,15.8-0.6,23.5-3
		c5.3-1.6,10.4-3.7,15.3-6.6c4.6-2.7,8.9-5.9,12.8-9.7c3.1-3.1,6.1-6.3,8.6-10c1.7-2.6,3.3-5.3,4.7-8.1c2-4.2,3.7-8.5,4.6-13
		c1.1-5.3,1.4-10.7,1.1-16.1c-0.1-3.4-0.3-6.8-1-10.1c-1.1-5-2.8-9.8-5-14.4c-2-4.2-4.4-8-7.2-11.4c-3.3-4.1-6.9-7.7-11-10.8
		c-3.3-2.5-6.8-4.9-10.5-6.8c-6.5-3.4-13.3-5.6-20.3-6.9c-7.9-1.4-15.9-1.5-23.9-0.4c-6,0.8-11.9,2.4-17.5,4.9
		c-3.7,1.6-7.3,3.3-10.7,5.7c-3.2,2.3-6.4,4.5-9.4,7.4c-2,2-4,4-5.9,6.2c-2.3,2.8-4.3,5.7-6.2,8.9c-2.8,4.8-5,9.9-6.3,15.4
		C33.3,77.8,32.8,82.7,33,87.7z"/>
	<path fill="#A8DAA8" d="M174.7,132.8c0-0.8,0.4-1.1,1-1.1C175.6,132.2,175.4,132.9,174.7,132.8z"/>
	<path fill="#A8DAA8" d="M174.4,133.2c0.1-0.1,0.2-0.3,0.3-0.4C174.7,133.1,174.6,133.2,174.4,133.2z"/>
	<path fill="#A8DAA8" d="M174,134c0.1-0.1,0.2-0.2,0.2-0.4C174.3,133.8,174.2,133.9,174,134z"/>
	<path fill="#A8DAA8" d="M173.7,134.4c0.1-0.1,0.2-0.3,0.3-0.4C174.1,134.2,173.9,134.4,173.7,134.4z"/>
	<path fill="#FDFEFD" d="M82.1,131.8c0.2,1.6-0.1,3-0.5,4.3c-0.5,1.6,0.1,2.1,1.3,2.5c5.6,1.8,10.9,0.3,16-2.1
		c4.9-2.3,9.3-5.6,13.9-8.6c2.2-1.4,3.7-3.3,4.5-5.8c0.2-0.7,0.5-1.2,1.1-1.7c0.4,1.1,0.8,2.2,0.9,3.5c6.4-2.3,13.1-0.3,19.5-2.4
		c-0.5-0.9-1-1.6-0.8-2.7c1.3-0.1,2.5,0.4,3.9,0.7c-0.7-1.6-1.4-3-2.1-4.5c1.6,0.2,2.6,1.2,3.6,2c1.1,0.7,1.9,0.9,2.7-0.3
		c1.1-1.7,2.3-3.2,3.1-5.2c0.7-1.8,0.8-3.6,0.1-5.4c-1.1-3-3.1-5.2-5.1-7.3c-3.9-4-8.3-6.9-12.9-9.6c-2.1-1.2-4.1-1.9-6.2-0.1
		c-1.1,0.9-2.2,1.7-3.4,2.7c-0.2-2.8,1.6-4.3,2.7-6.3c-1.4-0.6-2.7-1-3.8-1.6c-1.4-0.8-2.6-0.2-3.9,0.2c-1.1,0.4-2.2,1.3-3.4,1.2
		c0-0.2-0.1-0.3-0.1-0.5c1-0.8,2-1.6,3.1-2.5c-4.4-1.6-8.7-2.4-13.1-2.3c-6.4,0.1-11.2,3.6-15.1,9c-2.1,2.8-3.7,6-5.4,9
		c-1.3,2.3-1.3,3,0.3,4.8c-0.8,0.7-2.3-0.5-2.8,1.3c-1.9,6-3.3,12.1-3.7,18.4c-0.3,4.1,0.1,8.2,2,12
		C79.9,134.1,80.6,132.5,82.1,131.8z M110.6,59.9c1.7-1.2,3.4-1,4.9-1.6c0.8-0.4,1.6-0.6,1.7-1.8c0.3-5.8-0.7-11-4.2-15.5
		c-3-3.8-6.6-5.6-11-4.3c-4.6,1.3-7.2,5.1-8.9,9.9c1.8,1.1,3.7,1.2,5.6,2.6c-2.5,0.3-4.5-0.2-6.5,0.2c-1,6.6,0,12.7,3.4,18
		c2,3.3,4.8,5.3,8.5,5.6c6.3,0.6,11.4-5.7,12.5-12.6C114.7,60.3,112.8,60.1,110.6,59.9z M68.8,67.7c0.9,2.6,1.4,4.8,1.8,7.1
		c0.1,0.5,0.1,1.1,0.7,1.4c4.4,2.1,8.8,3.8,13.6,2.4c3.4-1,5.2-3.1,5.1-7.4c-0.1-6.3-3.6-10.4-7.3-14.3c-3-3.2-6.7-5.3-10.5-6.9
		c-4.2-1.8-8.4-2.5-12.7-0.3c-2.6,1.3-3.9,5.1-3.3,8.2c0.8,4,2.5,7.3,4.9,10.1c1.7,2,3.6,3.9,5.9,5.3C67.2,71.3,68,69.7,68.8,67.7z
		 M138.8,74.4c1.9,0,4-0.1,6,0c1.5,0.1,2.4-0.1,3.2-1.8c2.3-5,4.2-9.9,1.9-15.7c-1.6-4.1-4.4-6.1-8-6.5c-6.8-0.7-11.6,3.3-15.6,9
		c-1.4,2-2.2,4.4-3,6.9c-2.1,6.4,0.3,15.4,7.8,16.6c4.4,0.7,8.1-1.1,11.6-3.6C141.5,77.3,139.7,76.2,138.8,74.4z M70.8,86
		c-0.3-0.7-0.7-1.1-1.2-1.5c-2.2-1.7-4.5-3.2-6.9-4.3c-5.1-2.3-10.3-3.8-15.9-2.5c-2.5,0.6-5,1.6-5.9,5c-0.6,2.3,0.2,4.2,0.8,6.2
		c0.8,2.3,1.5,2.5,3.5,1.6c0.8-0.4,1.5-0.8,2.6-0.8c-0.4,1.1-0.9,2-1.6,2.7c-0.9,0.9-1.1,1.8,0.2,2.9c4.4,3.8,9.3,6.6,14.7,7.9
		c4.1,1,8.3,1.4,12.3-0.5c2.1-1,4.3-4.4,3.8-6.1c-0.5-1.9-1.1-3.8-2-5.6c-1.2-2.2-2.7-3.3-5-2.7c-0.5,0.1-1.1,0.3-1.5-0.5
		C69.1,86.5,70.2,87,70.8,86z"/>
	<path fill="#67CC67" d="M82.1,131.8c-1.5,0.7-2.2,2.3-3.8,2.7c-1.9-3.8-2.2-7.9-2-12c0.4-6.3,1.7-12.4,3.7-18.4
		c0.6-1.8,2-0.5,2.8-1.3c-1.6-1.8-1.6-2.5-0.3-4.8c1.8-3.1,3.4-6.2,5.4-9c3.9-5.4,8.7-8.9,15.1-9c4.5,0,8.7,0.8,13.1,2.3
		c-1.1,0.9-2.1,1.7-3.1,2.5c0,0.2,0.1,0.3,0.1,0.5c1.2,0,2.3-0.9,3.4-1.2c1.3-0.4,2.5-1,3.9-0.2c1.2,0.6,2.4,1,3.8,1.6
		c-1.1,2-2.9,3.5-2.7,6.3c1.2-1,2.4-1.8,3.4-2.7c2.2-1.8,4.2-1.2,6.2,0.1c4.6,2.7,9,5.6,12.9,9.6c2.1,2.1,4.1,4.3,5.1,7.3
		c0.6,1.8,0.6,3.6-0.1,5.4c-0.8,1.9-2,3.5-3.1,5.2c-0.8,1.2-1.6,1.1-2.7,0.3c-1.1-0.7-2.1-1.8-3.6-2c0.7,1.6,1.4,2.9,2.1,4.5
		c-1.4-0.3-2.5-0.8-3.9-0.7c-0.3,1.1,0.3,1.8,0.8,2.7c-6.4,2.1-13.1,0.1-19.5,2.4c-0.1-1.3-0.4-2.4-0.9-3.5c-0.6,0.5-0.9,1-1.1,1.7
		c-0.9,2.6-2.3,4.4-4.5,5.8c-4.6,3-9,6.3-13.9,8.6c-5.1,2.4-10.4,3.9-16,2.1c-1.3-0.4-1.8-0.9-1.3-2.5
		C82,134.8,82.3,133.4,82.1,131.8z"/>
	<path fill="#67CC67" d="M110.6,59.9c2.2,0.2,4.2,0.4,6.1,0.6c-1.1,6.8-6.2,13.1-12.5,12.6c-3.7-0.3-6.5-2.3-8.5-5.6
		c-3.4-5.4-4.4-11.4-3.4-18c2-0.4,4.1,0,6.5-0.2c-1.9-1.4-3.9-1.5-5.6-2.6c1.7-4.8,4.3-8.6,8.9-9.9c4.4-1.3,8.1,0.5,11,4.3
		c3.5,4.5,4.5,9.7,4.2,15.5c-0.1,1.3-0.9,1.5-1.7,1.8C114,58.9,112.3,58.7,110.6,59.9z"/>
	<path fill="#67CC67" d="M68.8,67.7c-0.8,2-1.6,3.6-1.8,5.6c-2.3-1.4-4.2-3.2-5.9-5.3c-2.4-2.9-4.2-6.1-4.9-10.1
		c-0.6-3.1,0.7-6.9,3.3-8.2c4.3-2.2,8.5-1.4,12.7,0.3c3.9,1.6,7.5,3.7,10.5,6.9c3.7,3.9,7.2,8,7.3,14.3c0.1,4.3-1.7,6.3-5.1,7.4
		c-4.8,1.4-9.3-0.3-13.6-2.4c-0.6-0.3-0.6-0.9-0.7-1.4C70.2,72.5,69.6,70.3,68.8,67.7z"/>
	<path fill="#67CC67" d="M138.8,74.4c0.9,1.8,2.7,2.9,3.7,4.9c-3.5,2.6-7.2,4.3-11.6,3.6c-7.5-1.3-9.9-10.3-7.8-16.6
		c0.8-2.4,1.6-4.8,3-6.9c4-5.6,8.8-9.7,15.6-9c3.7,0.4,6.4,2.4,8,6.5c2.3,5.8,0.4,10.7-1.9,15.7c-0.8,1.8-1.7,1.9-3.2,1.8
		C142.7,74.3,140.7,74.4,138.8,74.4z"/>
	<path fill="#67CC67" d="M70.8,86c-0.5,0.9-1.7,0.5-2,1.5c0.4,0.8,1,0.6,1.5,0.5c2.3-0.5,3.8,0.5,5,2.7c0.9,1.8,1.5,3.6,2,5.6
		c0.4,1.7-1.8,5.1-3.8,6.1c-4,1.9-8.2,1.5-12.3,0.5c-5.4-1.3-10.2-4.1-14.7-7.9c-1.3-1.1-1.1-1.9-0.2-2.9c0.7-0.7,1.2-1.6,1.6-2.7
		c-1.1,0.1-1.8,0.5-2.6,0.8c-2,1-2.7,0.8-3.5-1.6c-0.7-1.9-1.5-3.9-0.8-6.2c0.9-3.4,3.3-4.4,5.9-5c5.5-1.3,10.8,0.2,15.9,2.5
		c2.5,1.1,4.8,2.6,6.9,4.3C70.1,84.9,70.5,85.3,70.8,86z"/>
</g>
</svg>
