<?xml version="1.0" encoding="utf-8"?>
<!-- Generator: Adobe Illustrator 18.0.0, SVG Export Plug-In . SVG Version: 6.00 Build 0)  -->
<!DOCTYPE svg PUBLIC "-//W3C//DTD SVG 1.1//EN" "http://www.w3.org/Graphics/SVG/1.1/DTD/svg11.dtd">
<svg version="1.1" id="Layer_1_xA0_Image_1_" xmlns="http://www.w3.org/2000/svg" xmlns:xlink="http://www.w3.org/1999/xlink"
	 x="0px" y="0px" viewBox="0 0 34.5 26.5" enable-background="new 0 0 34.5 26.5" xml:space="preserve">
<g>
	<g>
		<path fill="#8AE8F2" d="M0,12.7C0,8.4,0,4.2,0,0c11.5,0,23,0,34.5,0c0,8.8,0,17.7,0,26.5c0,0-0.1,0-0.1,0c-6.8,0-13.7,0-20.5,0
			c0,0-0.1,0-0.1,0c0,0,0-0.1,0-0.1c0-4.5,0-9.1,0-13.6c0-0.1,0-0.1-0.1-0.1C9.1,12.7,4.6,12.7,0,12.7z M15.1,6.9
			c0-0.1,0-0.1-0.1-0.1c0,0-0.1,0.1-0.1,0.1C14.9,7,14.9,7,15,7C15,7,15.1,7,15.1,6.9z"/>
		<path fill="#33D6EA" d="M0,12.7c4.6,0,9.1,0,13.7,0c0.1,0,0.1,0,0.1,0.1c0,4.5,0,9.1,0,13.6c0,0,0,0.1,0,0.1c0,0-0.1,0-0.1,0
			c-4.6,0-9.1,0-13.7,0C0,21.9,0,17.3,0,12.7z"/>
		<path fill="#FEFEFE" d="M0,26.5c4.6,0,9.1,0,13.7,0c0,0,0.1,0,0.1,0c0,0,0.1,0,0.1,0c6.8,0,13.7,0,20.5,0c0,0,0.1,0,0.1,0
			c0-8.8,0-17.7,0-26.5c0,0,0,0,0,0c0,0,0,0,0,0.1c0,8.8,0,17.6,0,26.4c0,0-0.1,0-0.1,0C23,26.5,11.5,26.5,0,26.5
			C0.1,26.5,0,26.5,0,26.5z"/>
		<path fill="#A2EDF8" d="M15.1,6.9C15.1,7,15,7,15,7c-0.1,0-0.1,0-0.1-0.1c0-0.1,0.1-0.1,0.1-0.1C15,6.8,15.1,6.9,15.1,6.9z"/>
	</g>
</g>
</svg>
